<svg width="25" height="25" viewBox="0 0 25 25" fill="none" xmlns="http://www.w3.org/2000/svg">
<mask id="path-1-outside-1_385_400" maskUnits="userSpaceOnUse" x="0" y="7.71094" width="25" height="17" fill="black">
<rect fill="white" y="7.71094" width="25" height="17"/>
<path d="M17.504 23.8918C17.0496 23.8918 16.5952 23.8918 16.1407 23.8918H14.152C13.4474 23.8918 13.214 23.725 12.993 23.058C12.9596 22.9663 12.8429 22.5994 12.8429 22.5994L12.4468 21.3945L11.9757 22.8162C11.934 22.9496 11.8965 23.0663 11.8548 23.183C11.8046 23.3932 11.6806 23.5782 11.5053 23.7045C11.3301 23.8308 11.1152 23.8899 10.9001 23.871H7.2645C7.15229 23.8713 7.04237 23.8394 6.94767 23.7792H10.8083C11.0309 23.8143 11.2583 23.7606 11.4416 23.6296C11.6248 23.4985 11.7493 23.3007 11.7881 23.0788C12.2452 21.9746 12.2675 20.7384 11.8506 19.6184C11.5369 18.8549 11.0435 18.1784 10.4123 17.6464C10.1163 17.3795 9.80774 17.1294 9.50339 16.875C9.19903 16.6207 8.91551 16.3831 8.62784 16.1329C8.34627 15.8774 8.08686 15.5985 7.85237 15.2991C7.43546 14.7738 7.01852 14.2401 6.63912 13.7023L6.06795 12.9393C5.9902 12.8074 5.87376 12.7026 5.73442 12.6392C5.6216 12.5946 5.50134 12.572 5.38004 12.5724C5.2715 12.5692 5.16391 12.5936 5.06735 12.6433C4.95424 12.7135 4.86306 12.814 4.80411 12.9334C4.74516 13.0527 4.72081 13.1862 4.73382 13.3187C4.75448 13.5185 4.80946 13.7131 4.8964 13.8941C5.31054 14.803 5.72746 15.7077 6.14716 16.6082C6.1651 16.6432 6.18045 16.6794 6.19304 16.7166L6.13884 16.7416L6.10548 16.7125C5.53749 15.7319 5.06556 14.6986 4.69629 13.6273C4.67146 13.5234 4.6575 13.4172 4.65461 13.3104C4.65461 13.2228 4.65461 13.1311 4.62959 13.0436C4.61468 12.909 4.57359 12.7788 4.50867 12.66C3.88329 11.5677 3.25652 10.4767 2.62836 9.38719C2.55547 9.26141 2.46724 9.14517 2.3657 9.04114C2.22149 8.89389 2.02557 8.80864 1.81953 8.80349C1.69768 8.80496 1.5781 8.83658 1.47145 8.89553C1.36479 8.95448 1.27439 9.03892 1.20833 9.14132C1.14226 9.24372 1.1026 9.36089 1.09285 9.48236C1.0831 9.60383 1.10358 9.72582 1.15247 9.83745C1.20667 9.97503 1.26088 10.1084 1.31925 10.2544C1.41097 10.4795 1.50268 10.7047 1.58606 10.9298C1.59234 10.9428 1.5956 10.957 1.5956 10.9715C1.5956 10.9859 1.59234 11.0002 1.58606 11.0132C1.55746 10.997 1.53204 10.9759 1.51102 10.9506C1.33444 10.5864 1.1799 10.2119 1.04824 9.82912C1.004 9.70478 0.989912 9.57171 1.00712 9.44086C1.02433 9.31 1.07234 9.18508 1.14723 9.07641C1.22212 8.96773 1.32176 8.8784 1.43791 8.81573C1.55406 8.75306 1.68344 8.71885 1.81539 8.71593C2.01916 8.71852 2.21491 8.79565 2.3657 8.93274C2.51504 9.07198 2.64166 9.23377 2.74094 9.4122C3.15786 10.0834 3.52892 10.763 3.91665 11.4426L4.37108 12.2347C4.39505 12.2766 4.4215 12.317 4.4503 12.3557L4.63792 12.6558L4.92976 12.585L5.08402 12.5433C5.15621 12.5207 5.23012 12.5039 5.305 12.4932H5.40923C5.54196 12.4914 5.67309 12.5224 5.79093 12.5835C5.90878 12.6446 6.00968 12.7339 6.08464 12.8434L6.50156 13.3854C6.83093 13.8024 7.17279 14.2568 7.48548 14.7029C8.03674 15.4716 8.70168 16.152 9.45751 16.7208C9.89993 17.073 10.3243 17.4474 10.7291 17.8423C11.3283 18.4122 11.7829 19.1168 12.0549 19.8977L12.3885 20.8775L12.8638 19.8602C12.8903 19.8087 12.9139 19.7558 12.9346 19.7018C13.198 19.0348 13.5953 18.4289 14.102 17.9215C14.1183 17.9037 14.1382 17.8895 14.1604 17.8798L14.1979 17.909C14.1882 17.95 14.1697 17.9884 14.1437 18.0216L13.8977 18.3426C13.6206 18.6769 13.3762 19.0371 13.1681 19.4183C12.6511 20.4231 12.6136 21.5321 13.043 22.9079C13.0722 22.9954 13.1014 23.083 13.1347 23.1664C13.1814 23.365 13.2993 23.5395 13.466 23.6571C13.6327 23.7746 13.8367 23.827 14.0394 23.8043H17.9293C17.8137 23.8742 17.6808 23.9103 17.5458 23.9085L17.504 23.8918ZM6.74335 23.5374C6.70156 23.4342 6.69282 23.3206 6.71834 23.2122C6.86009 22.5702 7.02687 21.8989 7.21865 21.161C7.26443 21.0136 7.26594 20.856 7.22295 20.7078C7.17996 20.5595 7.09437 20.4272 6.97683 20.3272C6.64746 20.0145 6.32645 19.6976 6.00542 19.3807L5.25497 18.647C4.59596 18.0148 4.07128 17.2562 3.71237 16.4164L3.5873 16.1246C3.42053 15.7327 3.25376 15.3408 3.09116 14.9489C3.06731 14.9087 3.05707 14.8619 3.06197 14.8155H3.10365C3.13177 14.8476 3.15433 14.8843 3.17038 14.9239L3.28293 15.1865C3.44136 15.5493 3.59978 15.912 3.7457 16.2789C4.11622 17.1663 4.66708 17.967 5.36335 18.6303L6.32643 19.5684C6.65997 19.9019 6.9977 20.2313 7.33957 20.5606C7.37698 20.586 7.40445 20.6235 7.41736 20.6668C7.43028 20.7101 7.42784 20.7566 7.41044 20.7983C7.26869 21.3361 7.13527 21.8739 6.99352 22.4159L6.85593 22.9829C6.85593 23.0413 6.82675 23.1038 6.81008 23.1789L6.74335 23.5374ZM17.7 21.6446L17.6375 21.3945C17.5874 21.1693 17.5333 20.9484 17.4707 20.7316C17.4707 20.6732 17.4457 20.6482 17.5291 20.5648C17.7334 20.3689 17.946 20.1729 18.1294 19.9728C18.4796 19.6309 18.8382 19.2723 19.2009 18.943C20.1611 18.0615 20.902 16.9679 21.3647 15.7494C21.9067 14.3736 22.4654 13.0019 23.0324 11.6302L23.7287 9.91251C23.8199 9.74579 23.8453 9.55089 23.7997 9.36637C23.7542 9.18186 23.641 9.02118 23.4827 8.91607C23.3688 8.84083 23.2356 8.80027 23.0991 8.79932C22.9652 8.80381 22.8341 8.83928 22.7162 8.90294C22.5983 8.9666 22.4968 9.05671 22.4195 9.16621C22.3578 9.25055 22.3007 9.33824 22.2486 9.42887L21.9276 9.98756C21.4273 10.8547 20.9311 11.7178 20.4392 12.585C20.3691 12.7236 20.3226 12.873 20.3016 13.0269V13.1145C20.2816 13.2023 20.2677 13.2915 20.2599 13.3813C20.2508 13.4919 20.2284 13.6011 20.1932 13.7065C19.7763 14.6862 19.3135 15.6702 18.8132 16.7208C18.7884 16.7483 18.7587 16.7709 18.7256 16.7875V16.7667C18.7304 16.7315 18.7417 16.6976 18.759 16.6666C19.1425 15.8744 19.522 15.0823 19.893 14.2818C19.9996 14.0531 20.0875 13.816 20.1557 13.5731C20.2891 13.1269 20.189 12.8226 19.8597 12.6558C19.7562 12.5988 19.6401 12.5687 19.5219 12.5683C19.3946 12.5766 19.2709 12.614 19.1604 12.6776C19.0498 12.7412 18.9552 12.8293 18.8841 12.9352C18.6006 13.3187 18.3129 13.6981 18.0252 14.0817L17.5541 14.7029C17.4665 14.8238 17.3832 14.9405 17.2914 15.0531C17.273 15.0771 17.2486 15.0958 17.2205 15.1073C17.1872 15.0823 17.1663 15.0698 17.2205 15.0073C17.775 14.261 18.3337 13.5147 18.8882 12.7767C18.9611 12.6803 19.0558 12.6025 19.1644 12.5496C19.2731 12.4967 19.3928 12.4703 19.5136 12.4724C19.6011 12.4729 19.6881 12.4855 19.7721 12.5099L20.2932 12.6725L21.3189 10.8964L21.6149 10.3795C21.8275 10.0126 22.0318 9.6415 22.2528 9.27461C22.3268 9.11334 22.4437 8.97554 22.5908 8.87627C22.7378 8.777 22.9094 8.72009 23.0866 8.71178C23.2584 8.70393 23.4282 8.751 23.5714 8.84622C23.7146 8.94143 23.8237 9.07981 23.8829 9.24125L23.933 9.3705V9.66235C23.933 9.66235 21.9192 14.6654 21.2772 16.258C20.9076 17.1738 20.346 17.9998 19.6304 18.6803C19.3552 18.9388 19.0842 19.2056 18.7965 19.4725C18.5088 19.7393 18.2128 20.0478 17.9168 20.3272C17.801 20.4283 17.7175 20.5613 17.6768 20.7096C17.636 20.8579 17.6397 21.0148 17.6875 21.161C17.7542 21.4153 17.8126 21.6738 17.8751 21.9323C17.9668 22.3159 18.0586 22.6994 18.167 23.0788C18.2088 23.2146 18.2088 23.3599 18.167 23.4957L17.7 21.6446Z"/>
</mask>
<path d="M17.504 23.8918C17.0496 23.8918 16.5952 23.8918 16.1407 23.8918H14.152C13.4474 23.8918 13.214 23.725 12.993 23.058C12.9596 22.9663 12.8429 22.5994 12.8429 22.5994L12.4468 21.3945L11.9757 22.8162C11.934 22.9496 11.8965 23.0663 11.8548 23.183C11.8046 23.3932 11.6806 23.5782 11.5053 23.7045C11.3301 23.8308 11.1152 23.8899 10.9001 23.871H7.2645C7.15229 23.8713 7.04237 23.8394 6.94767 23.7792H10.8083C11.0309 23.8143 11.2583 23.7606 11.4416 23.6296C11.6248 23.4985 11.7493 23.3007 11.7881 23.0788C12.2452 21.9746 12.2675 20.7384 11.8506 19.6184C11.5369 18.8549 11.0435 18.1784 10.4123 17.6464C10.1163 17.3795 9.80774 17.1294 9.50339 16.875C9.19903 16.6207 8.91551 16.3831 8.62784 16.1329C8.34627 15.8774 8.08686 15.5985 7.85237 15.2991C7.43546 14.7738 7.01852 14.2401 6.63912 13.7023L6.06795 12.9393C5.9902 12.8074 5.87376 12.7026 5.73442 12.6392C5.6216 12.5946 5.50134 12.572 5.38004 12.5724C5.2715 12.5692 5.16391 12.5936 5.06735 12.6433C4.95424 12.7135 4.86306 12.814 4.80411 12.9334C4.74516 13.0527 4.72081 13.1862 4.73382 13.3187C4.75448 13.5185 4.80946 13.7131 4.8964 13.8941C5.31054 14.803 5.72746 15.7077 6.14716 16.6082C6.1651 16.6432 6.18045 16.6794 6.19304 16.7166L6.13884 16.7416L6.10548 16.7125C5.53749 15.7319 5.06556 14.6986 4.69629 13.6273C4.67146 13.5234 4.6575 13.4172 4.65461 13.3104C4.65461 13.2228 4.65461 13.1311 4.62959 13.0436C4.61468 12.909 4.57359 12.7788 4.50867 12.66C3.88329 11.5677 3.25652 10.4767 2.62836 9.38719C2.55547 9.26141 2.46724 9.14517 2.3657 9.04114C2.22149 8.89389 2.02557 8.80864 1.81953 8.80349C1.69768 8.80496 1.5781 8.83658 1.47145 8.89553C1.36479 8.95448 1.27439 9.03892 1.20833 9.14132C1.14226 9.24372 1.1026 9.36089 1.09285 9.48236C1.0831 9.60383 1.10358 9.72582 1.15247 9.83745C1.20667 9.97503 1.26088 10.1084 1.31925 10.2544C1.41097 10.4795 1.50268 10.7047 1.58606 10.9298C1.59234 10.9428 1.5956 10.957 1.5956 10.9715C1.5956 10.9859 1.59234 11.0002 1.58606 11.0132C1.55746 10.997 1.53204 10.9759 1.51102 10.9506C1.33444 10.5864 1.1799 10.2119 1.04824 9.82912C1.004 9.70478 0.989912 9.57171 1.00712 9.44086C1.02433 9.31 1.07234 9.18508 1.14723 9.07641C1.22212 8.96773 1.32176 8.8784 1.43791 8.81573C1.55406 8.75306 1.68344 8.71885 1.81539 8.71593C2.01916 8.71852 2.21491 8.79565 2.3657 8.93274C2.51504 9.07198 2.64166 9.23377 2.74094 9.4122C3.15786 10.0834 3.52892 10.763 3.91665 11.4426L4.37108 12.2347C4.39505 12.2766 4.4215 12.317 4.4503 12.3557L4.63792 12.6558L4.92976 12.585L5.08402 12.5433C5.15621 12.5207 5.23012 12.5039 5.305 12.4932H5.40923C5.54196 12.4914 5.67309 12.5224 5.79093 12.5835C5.90878 12.6446 6.00968 12.7339 6.08464 12.8434L6.50156 13.3854C6.83093 13.8024 7.17279 14.2568 7.48548 14.7029C8.03674 15.4716 8.70168 16.152 9.45751 16.7208C9.89993 17.073 10.3243 17.4474 10.7291 17.8423C11.3283 18.4122 11.7829 19.1168 12.0549 19.8977L12.3885 20.8775L12.8638 19.8602C12.8903 19.8087 12.9139 19.7558 12.9346 19.7018C13.198 19.0348 13.5953 18.4289 14.102 17.9215C14.1183 17.9037 14.1382 17.8895 14.1604 17.8798L14.1979 17.909C14.1882 17.95 14.1697 17.9884 14.1437 18.0216L13.8977 18.3426C13.6206 18.6769 13.3762 19.0371 13.1681 19.4183C12.6511 20.4231 12.6136 21.5321 13.043 22.9079C13.0722 22.9954 13.1014 23.083 13.1347 23.1664C13.1814 23.365 13.2993 23.5395 13.466 23.6571C13.6327 23.7746 13.8367 23.827 14.0394 23.8043H17.9293C17.8137 23.8742 17.6808 23.9103 17.5458 23.9085L17.504 23.8918ZM6.74335 23.5374C6.70156 23.4342 6.69282 23.3206 6.71834 23.2122C6.86009 22.5702 7.02687 21.8989 7.21865 21.161C7.26443 21.0136 7.26594 20.856 7.22295 20.7078C7.17996 20.5595 7.09437 20.4272 6.97683 20.3272C6.64746 20.0145 6.32645 19.6976 6.00542 19.3807L5.25497 18.647C4.59596 18.0148 4.07128 17.2562 3.71237 16.4164L3.5873 16.1246C3.42053 15.7327 3.25376 15.3408 3.09116 14.9489C3.06731 14.9087 3.05707 14.8619 3.06197 14.8155H3.10365C3.13177 14.8476 3.15433 14.8843 3.17038 14.9239L3.28293 15.1865C3.44136 15.5493 3.59978 15.912 3.7457 16.2789C4.11622 17.1663 4.66708 17.967 5.36335 18.6303L6.32643 19.5684C6.65997 19.9019 6.9977 20.2313 7.33957 20.5606C7.37698 20.586 7.40445 20.6235 7.41736 20.6668C7.43028 20.7101 7.42784 20.7566 7.41044 20.7983C7.26869 21.3361 7.13527 21.8739 6.99352 22.4159L6.85593 22.9829C6.85593 23.0413 6.82675 23.1038 6.81008 23.1789L6.74335 23.5374ZM17.7 21.6446L17.6375 21.3945C17.5874 21.1693 17.5333 20.9484 17.4707 20.7316C17.4707 20.6732 17.4457 20.6482 17.5291 20.5648C17.7334 20.3689 17.946 20.1729 18.1294 19.9728C18.4796 19.6309 18.8382 19.2723 19.2009 18.943C20.1611 18.0615 20.902 16.9679 21.3647 15.7494C21.9067 14.3736 22.4654 13.0019 23.0324 11.6302L23.7287 9.91251C23.8199 9.74579 23.8453 9.55089 23.7997 9.36637C23.7542 9.18186 23.641 9.02118 23.4827 8.91607C23.3688 8.84083 23.2356 8.80027 23.0991 8.79932C22.9652 8.80381 22.8341 8.83928 22.7162 8.90294C22.5983 8.9666 22.4968 9.05671 22.4195 9.16621C22.3578 9.25055 22.3007 9.33824 22.2486 9.42887L21.9276 9.98756C21.4273 10.8547 20.9311 11.7178 20.4392 12.585C20.3691 12.7236 20.3226 12.873 20.3016 13.0269V13.1145C20.2816 13.2023 20.2677 13.2915 20.2599 13.3813C20.2508 13.4919 20.2284 13.6011 20.1932 13.7065C19.7763 14.6862 19.3135 15.6702 18.8132 16.7208C18.7884 16.7483 18.7587 16.7709 18.7256 16.7875V16.7667C18.7304 16.7315 18.7417 16.6976 18.759 16.6666C19.1425 15.8744 19.522 15.0823 19.893 14.2818C19.9996 14.0531 20.0875 13.816 20.1557 13.5731C20.2891 13.1269 20.189 12.8226 19.8597 12.6558C19.7562 12.5988 19.6401 12.5687 19.5219 12.5683C19.3946 12.5766 19.2709 12.614 19.1604 12.6776C19.0498 12.7412 18.9552 12.8293 18.8841 12.9352C18.6006 13.3187 18.3129 13.6981 18.0252 14.0817L17.5541 14.7029C17.4665 14.8238 17.3832 14.9405 17.2914 15.0531C17.273 15.0771 17.2486 15.0958 17.2205 15.1073C17.1872 15.0823 17.1663 15.0698 17.2205 15.0073C17.775 14.261 18.3337 13.5147 18.8882 12.7767C18.9611 12.6803 19.0558 12.6025 19.1644 12.5496C19.2731 12.4967 19.3928 12.4703 19.5136 12.4724C19.6011 12.4729 19.6881 12.4855 19.7721 12.5099L20.2932 12.6725L21.3189 10.8964L21.6149 10.3795C21.8275 10.0126 22.0318 9.6415 22.2528 9.27461C22.3268 9.11334 22.4437 8.97554 22.5908 8.87627C22.7378 8.777 22.9094 8.72009 23.0866 8.71178C23.2584 8.70393 23.4282 8.751 23.5714 8.84622C23.7146 8.94143 23.8237 9.07981 23.8829 9.24125L23.933 9.3705V9.66235C23.933 9.66235 21.9192 14.6654 21.2772 16.258C20.9076 17.1738 20.346 17.9998 19.6304 18.6803C19.3552 18.9388 19.0842 19.2056 18.7965 19.4725C18.5088 19.7393 18.2128 20.0478 17.9168 20.3272C17.801 20.4283 17.7175 20.5613 17.6768 20.7096C17.636 20.8579 17.6397 21.0148 17.6875 21.161C17.7542 21.4153 17.8126 21.6738 17.8751 21.9323C17.9668 22.3159 18.0586 22.6994 18.167 23.0788C18.2088 23.2146 18.2088 23.3599 18.167 23.4957L17.7 21.6446Z" fill="black"/>
<path d="M17.504 23.8918C17.0496 23.8918 16.5952 23.8918 16.1407 23.8918H14.152C13.4474 23.8918 13.214 23.725 12.993 23.058C12.9596 22.9663 12.8429 22.5994 12.8429 22.5994L12.4468 21.3945L11.9757 22.8162C11.934 22.9496 11.8965 23.0663 11.8548 23.183C11.8046 23.3932 11.6806 23.5782 11.5053 23.7045C11.3301 23.8308 11.1152 23.8899 10.9001 23.871H7.2645C7.15229 23.8713 7.04237 23.8394 6.94767 23.7792H10.8083C11.0309 23.8143 11.2583 23.7606 11.4416 23.6296C11.6248 23.4985 11.7493 23.3007 11.7881 23.0788C12.2452 21.9746 12.2675 20.7384 11.8506 19.6184C11.5369 18.8549 11.0435 18.1784 10.4123 17.6464C10.1163 17.3795 9.80774 17.1294 9.50339 16.875C9.19903 16.6207 8.91551 16.3831 8.62784 16.1329C8.34627 15.8774 8.08686 15.5985 7.85237 15.2991C7.43546 14.7738 7.01852 14.2401 6.63912 13.7023L6.06795 12.9393C5.9902 12.8074 5.87376 12.7026 5.73442 12.6392C5.6216 12.5946 5.50134 12.572 5.38004 12.5724C5.2715 12.5692 5.16391 12.5936 5.06735 12.6433C4.95424 12.7135 4.86306 12.814 4.80411 12.9334C4.74516 13.0527 4.72081 13.1862 4.73382 13.3187C4.75448 13.5185 4.80946 13.7131 4.8964 13.8941C5.31054 14.803 5.72746 15.7077 6.14716 16.6082C6.1651 16.6432 6.18045 16.6794 6.19304 16.7166L6.13884 16.7416L6.10548 16.7125C5.53749 15.7319 5.06556 14.6986 4.69629 13.6273C4.67146 13.5234 4.6575 13.4172 4.65461 13.3104C4.65461 13.2228 4.65461 13.1311 4.62959 13.0436C4.61468 12.909 4.57359 12.7788 4.50867 12.66C3.88329 11.5677 3.25652 10.4767 2.62836 9.38719C2.55547 9.26141 2.46724 9.14517 2.3657 9.04114C2.22149 8.89389 2.02557 8.80864 1.81953 8.80349C1.69768 8.80496 1.5781 8.83658 1.47145 8.89553C1.36479 8.95448 1.27439 9.03892 1.20833 9.14132C1.14226 9.24372 1.1026 9.36089 1.09285 9.48236C1.0831 9.60383 1.10358 9.72582 1.15247 9.83745C1.20667 9.97503 1.26088 10.1084 1.31925 10.2544C1.41097 10.4795 1.50268 10.7047 1.58606 10.9298C1.59234 10.9428 1.5956 10.957 1.5956 10.9715C1.5956 10.9859 1.59234 11.0002 1.58606 11.0132C1.55746 10.997 1.53204 10.9759 1.51102 10.9506C1.33444 10.5864 1.1799 10.2119 1.04824 9.82912C1.004 9.70478 0.989912 9.57171 1.00712 9.44086C1.02433 9.31 1.07234 9.18508 1.14723 9.07641C1.22212 8.96773 1.32176 8.8784 1.43791 8.81573C1.55406 8.75306 1.68344 8.71885 1.81539 8.71593C2.01916 8.71852 2.21491 8.79565 2.3657 8.93274C2.51504 9.07198 2.64166 9.23377 2.74094 9.4122C3.15786 10.0834 3.52892 10.763 3.91665 11.4426L4.37108 12.2347C4.39505 12.2766 4.4215 12.317 4.4503 12.3557L4.63792 12.6558L4.92976 12.585L5.08402 12.5433C5.15621 12.5207 5.23012 12.5039 5.305 12.4932H5.40923C5.54196 12.4914 5.67309 12.5224 5.79093 12.5835C5.90878 12.6446 6.00968 12.7339 6.08464 12.8434L6.50156 13.3854C6.83093 13.8024 7.17279 14.2568 7.48548 14.7029C8.03674 15.4716 8.70168 16.152 9.45751 16.7208C9.89993 17.073 10.3243 17.4474 10.7291 17.8423C11.3283 18.4122 11.7829 19.1168 12.0549 19.8977L12.3885 20.8775L12.8638 19.8602C12.8903 19.8087 12.9139 19.7558 12.9346 19.7018C13.198 19.0348 13.5953 18.4289 14.102 17.9215C14.1183 17.9037 14.1382 17.8895 14.1604 17.8798L14.1979 17.909C14.1882 17.95 14.1697 17.9884 14.1437 18.0216L13.8977 18.3426C13.6206 18.6769 13.3762 19.0371 13.1681 19.4183C12.6511 20.4231 12.6136 21.5321 13.043 22.9079C13.0722 22.9954 13.1014 23.083 13.1347 23.1664C13.1814 23.365 13.2993 23.5395 13.466 23.6571C13.6327 23.7746 13.8367 23.827 14.0394 23.8043H17.9293C17.8137 23.8742 17.6808 23.9103 17.5458 23.9085L17.504 23.8918ZM6.74335 23.5374C6.70156 23.4342 6.69282 23.3206 6.71834 23.2122C6.86009 22.5702 7.02687 21.8989 7.21865 21.161C7.26443 21.0136 7.26594 20.856 7.22295 20.7078C7.17996 20.5595 7.09437 20.4272 6.97683 20.3272C6.64746 20.0145 6.32645 19.6976 6.00542 19.3807L5.25497 18.647C4.59596 18.0148 4.07128 17.2562 3.71237 16.4164L3.5873 16.1246C3.42053 15.7327 3.25376 15.3408 3.09116 14.9489C3.06731 14.9087 3.05707 14.8619 3.06197 14.8155H3.10365C3.13177 14.8476 3.15433 14.8843 3.17038 14.9239L3.28293 15.1865C3.44136 15.5493 3.59978 15.912 3.7457 16.2789C4.11622 17.1663 4.66708 17.967 5.36335 18.6303L6.32643 19.5684C6.65997 19.9019 6.9977 20.2313 7.33957 20.5606C7.37698 20.586 7.40445 20.6235 7.41736 20.6668C7.43028 20.7101 7.42784 20.7566 7.41044 20.7983C7.26869 21.3361 7.13527 21.8739 6.99352 22.4159L6.85593 22.9829C6.85593 23.0413 6.82675 23.1038 6.81008 23.1789L6.74335 23.5374ZM17.7 21.6446L17.6375 21.3945C17.5874 21.1693 17.5333 20.9484 17.4707 20.7316C17.4707 20.6732 17.4457 20.6482 17.5291 20.5648C17.7334 20.3689 17.946 20.1729 18.1294 19.9728C18.4796 19.6309 18.8382 19.2723 19.2009 18.943C20.1611 18.0615 20.902 16.9679 21.3647 15.7494C21.9067 14.3736 22.4654 13.0019 23.0324 11.6302L23.7287 9.91251C23.8199 9.74579 23.8453 9.55089 23.7997 9.36637C23.7542 9.18186 23.641 9.02118 23.4827 8.91607C23.3688 8.84083 23.2356 8.80027 23.0991 8.79932C22.9652 8.80381 22.8341 8.83928 22.7162 8.90294C22.5983 8.9666 22.4968 9.05671 22.4195 9.16621C22.3578 9.25055 22.3007 9.33824 22.2486 9.42887L21.9276 9.98756C21.4273 10.8547 20.9311 11.7178 20.4392 12.585C20.3691 12.7236 20.3226 12.873 20.3016 13.0269V13.1145C20.2816 13.2023 20.2677 13.2915 20.2599 13.3813C20.2508 13.4919 20.2284 13.6011 20.1932 13.7065C19.7763 14.6862 19.3135 15.6702 18.8132 16.7208C18.7884 16.7483 18.7587 16.7709 18.7256 16.7875V16.7667C18.7304 16.7315 18.7417 16.6976 18.759 16.6666C19.1425 15.8744 19.522 15.0823 19.893 14.2818C19.9996 14.0531 20.0875 13.816 20.1557 13.5731C20.2891 13.1269 20.189 12.8226 19.8597 12.6558C19.7562 12.5988 19.6401 12.5687 19.5219 12.5683C19.3946 12.5766 19.2709 12.614 19.1604 12.6776C19.0498 12.7412 18.9552 12.8293 18.8841 12.9352C18.6006 13.3187 18.3129 13.6981 18.0252 14.0817L17.5541 14.7029C17.4665 14.8238 17.3832 14.9405 17.2914 15.0531C17.273 15.0771 17.2486 15.0958 17.2205 15.1073C17.1872 15.0823 17.1663 15.0698 17.2205 15.0073C17.775 14.261 18.3337 13.5147 18.8882 12.7767C18.9611 12.6803 19.0558 12.6025 19.1644 12.5496C19.2731 12.4967 19.3928 12.4703 19.5136 12.4724C19.6011 12.4729 19.6881 12.4855 19.7721 12.5099L20.2932 12.6725L21.3189 10.8964L21.6149 10.3795C21.8275 10.0126 22.0318 9.6415 22.2528 9.27461C22.3268 9.11334 22.4437 8.97554 22.5908 8.87627C22.7378 8.777 22.9094 8.72009 23.0866 8.71178C23.2584 8.70393 23.4282 8.751 23.5714 8.84622C23.7146 8.94143 23.8237 9.07981 23.8829 9.24125L23.933 9.3705V9.66235C23.933 9.66235 21.9192 14.6654 21.2772 16.258C20.9076 17.1738 20.346 17.9998 19.6304 18.6803C19.3552 18.9388 19.0842 19.2056 18.7965 19.4725C18.5088 19.7393 18.2128 20.0478 17.9168 20.3272C17.801 20.4283 17.7175 20.5613 17.6768 20.7096C17.636 20.8579 17.6397 21.0148 17.6875 21.161C17.7542 21.4153 17.8126 21.6738 17.8751 21.9323C17.9668 22.3159 18.0586 22.6994 18.167 23.0788C18.2088 23.2146 18.2088 23.3599 18.167 23.4957L17.7 21.6446Z" stroke="black" stroke-width="0.6" mask="url(#path-1-outside-1_385_400)"/>
<mask id="path-2-outside-2_385_400" maskUnits="userSpaceOnUse" x="3.99219" y="0" width="17" height="10" fill="black">
<rect fill="white" x="3.99219" width="17" height="10"/>
<path d="M9.77441 9.68859C9.72751 9.69668 9.67958 9.69668 9.63268 9.68859C9.62735 9.64428 9.62735 9.59948 9.63268 9.55517V7.85416H5.20499C5.13352 7.85613 5.06208 7.84911 4.99236 7.83329C4.99236 7.83329 4.99236 7.76661 4.99236 7.6457V7.43307C4.98991 7.08435 5.0136 6.73594 5.06323 6.39077C5.18359 5.75464 5.53754 5.18653 6.0555 4.79813L6.47242 4.44791L6.32651 4.15191C6.14473 3.6606 6.09301 3.13065 6.1764 2.61348V2.42168C6.21429 2.08972 6.35537 1.778 6.57975 1.53044C6.80413 1.28287 7.10051 1.11193 7.42716 1.04168L7.56475 1H7.98167L8.11091 1.03751C8.43977 1.10115 8.73999 1.26739 8.96847 1.51234C9.19694 1.7573 9.34189 2.06835 9.38251 2.40084V2.54258C9.47478 3.07951 9.42595 3.63121 9.24077 4.14356L9.11153 4.41872L10.7792 5.97802V4.76894C10.7792 4.61468 10.7792 4.4771 10.7792 4.35202C10.8232 3.95281 11.0097 3.58288 11.3046 3.31021C11.5995 3.03754 11.9829 2.88044 12.3843 2.86779C12.4565 2.86366 12.5289 2.86366 12.6011 2.86779C13.0056 2.91562 13.3774 3.11351 13.643 3.42233C13.9086 3.73114 14.0486 4.12838 14.0353 4.53547V5.98634L15.5946 4.51463L15.5571 4.29365C15.5571 4.19359 15.5196 4.09769 15.5029 4.0018C15.4654 3.80168 15.4279 3.61407 15.4112 3.43062C15.3965 3.17373 15.3965 2.91622 15.4112 2.65933V2.57594C15.4086 2.34129 15.4635 2.10958 15.5711 1.90102C15.6786 1.69245 15.8356 1.51337 16.0282 1.37939C16.2088 1.26702 16.4019 1.17606 16.6036 1.10838L16.8496 1.00832H17.2665L17.3332 1.02919L17.5833 1.10423C17.8967 1.20883 18.1697 1.40828 18.3647 1.67495C18.5596 1.94162 18.6669 2.26233 18.6715 2.59264C18.6715 2.69687 18.6715 2.79692 18.6715 2.89698C18.725 3.32094 18.669 3.75155 18.5089 4.14774L18.3588 4.44791L18.8091 4.81897C19.1369 5.07655 19.4021 5.40505 19.5848 5.77982C19.7675 6.15458 19.8629 6.56587 19.8639 6.98279C19.8639 7.20792 19.8639 7.43306 19.8639 7.65819V7.73324C19.8697 7.77053 19.8697 7.80852 19.8639 7.84581C19.8182 7.85199 19.7719 7.85199 19.7263 7.84581H15.2778V9.551C15.2854 9.59654 15.2854 9.64304 15.2778 9.68859C15.2333 9.69142 15.1888 9.69142 15.1443 9.68859H9.77441ZM11.2003 6.53668C11.0808 6.53478 10.9633 6.56813 10.8626 6.63256C10.4543 6.92355 10.1344 7.32162 9.93794 7.78288C9.74151 8.24414 9.67627 8.75068 9.7494 9.24666L9.81195 9.58436H15.1485L15.1735 9.19663C15.2285 8.72327 15.1593 8.24377 14.973 7.8052C14.7866 7.36663 14.4893 6.98407 14.1104 6.69511C13.9845 6.59957 13.8306 6.54828 13.6726 6.5492C13.5698 6.54715 13.4685 6.57464 13.3808 6.62841C13.1034 6.8084 12.7816 6.90798 12.4511 6.91609C12.1203 6.90952 11.798 6.80982 11.5213 6.62841C11.4236 6.57206 11.3131 6.5419 11.2003 6.54085V6.53668ZM7.58559 7.74158C8.13175 7.74158 8.67792 7.74158 9.22825 7.74158C9.41187 7.75999 9.59661 7.71992 9.75609 7.62707C9.91557 7.53423 10.0416 7.39337 10.1163 7.22461L10.183 7.14122C10.245 7.07213 10.2995 6.99667 10.3456 6.91609C10.4486 6.74317 10.4857 6.53882 10.4498 6.34074C10.3117 5.75175 9.97994 5.22616 9.50761 4.84816C9.38423 4.73576 9.22419 4.67205 9.05733 4.66889C8.91789 4.67135 8.78201 4.71326 8.66542 4.78978C8.40638 4.95233 8.10814 5.04165 7.80239 5.04827C7.4928 5.04195 7.19107 4.94958 6.93102 4.78146C6.81806 4.70763 6.68657 4.66715 6.55163 4.66471C6.3882 4.66871 6.23152 4.73078 6.1097 4.83981C5.74084 5.13594 5.45295 5.52063 5.27288 5.95805C5.09282 6.39545 5.02642 6.87134 5.0799 7.34133L5.10908 7.72491L7.58559 7.74158ZM15.8323 4.66889C15.6795 4.66557 15.5309 4.71905 15.4153 4.81897C14.9888 5.1535 14.6652 5.60142 14.4815 6.11141C14.401 6.2837 14.3782 6.47736 14.4165 6.66363C14.4548 6.8499 14.5521 7.01885 14.6941 7.14539C14.7484 7.20097 14.7922 7.26593 14.8233 7.33716C14.8795 7.46754 14.9745 7.57748 15.0953 7.65206C15.2161 7.72664 15.357 7.76226 15.4987 7.75408H19.1635H19.3344L19.7513 7.72906L19.7805 7.36634C19.8332 6.8948 19.7648 6.41761 19.5817 5.97988C19.3986 5.54215 19.1068 5.15835 18.734 4.86483C18.6194 4.76119 18.4715 4.70204 18.3171 4.69807C18.1837 4.70172 18.0538 4.74211 17.9419 4.8148C17.6808 4.99297 17.372 5.08827 17.0559 5.08827C16.7398 5.08827 16.4311 4.99297 16.17 4.8148C16.0738 4.73467 15.9565 4.68401 15.8323 4.66889ZM12.4344 2.93449C12.0378 2.93647 11.6575 3.09234 11.3737 3.36922C11.0898 3.6461 10.9245 4.02235 10.9126 4.41872C10.9126 4.71056 10.9126 5.00243 10.9126 5.29844C10.917 5.70173 11.08 6.08708 11.3664 6.3711C11.6527 6.65511 12.0394 6.81494 12.4427 6.81601C12.8459 6.81291 13.2321 6.65339 13.5198 6.37105C13.8076 6.0887 13.9745 5.70563 13.9853 5.30261C13.9853 5.20255 13.9853 5.10248 13.9853 5.00659V4.72309C13.9853 4.62303 13.9853 4.51878 13.9853 4.41872C13.9713 4.02017 13.803 3.64265 13.516 3.36576C13.229 3.08887 12.8457 2.93424 12.4469 2.93449H12.4344ZM17.083 1.07922C16.6786 1.08029 16.2909 1.24055 16.0037 1.52535C15.7166 1.81015 15.5531 2.19656 15.5488 2.60096C15.5488 2.70519 15.5488 2.80524 15.5488 2.90947V3.15547C15.5488 3.25553 15.5488 3.35558 15.5488 3.45981C15.5693 3.85343 15.7401 4.22418 16.0259 4.49554C16.3118 4.76691 16.691 4.91819 17.0851 4.91819C17.4793 4.91819 17.8584 4.76691 18.1443 4.49554C18.4301 4.22418 18.6009 3.85343 18.6215 3.45981C18.6215 3.17214 18.6215 2.88863 18.6215 2.60096C18.6182 2.19583 18.4552 1.80837 18.1679 1.52268C17.8807 1.23698 17.4923 1.07613 17.0872 1.07504L17.083 1.07922ZM7.79822 1.07922C7.40168 1.0812 7.0214 1.23704 6.73752 1.51392C6.45365 1.7908 6.28836 2.16708 6.27648 2.56345C6.27648 2.85529 6.27648 3.1513 6.27648 3.44314C6.28292 3.84362 6.44486 4.22589 6.72808 4.50911C7.0113 4.79233 7.39357 4.95429 7.79405 4.96074C8.1993 4.96304 8.58927 4.80621 8.88009 4.52397C9.17091 4.24173 9.33935 3.85663 9.34917 3.45149C9.34917 3.35143 9.34917 3.24718 9.34917 3.14712V2.53843C9.32885 2.1443 9.15783 1.77305 8.87149 1.50145C8.58515 1.22986 8.2054 1.07869 7.81074 1.07922H7.79822Z"/>
</mask>
<path d="M9.77441 9.68859C9.72751 9.69668 9.67958 9.69668 9.63268 9.68859C9.62735 9.64428 9.62735 9.59948 9.63268 9.55517V7.85416H5.20499C5.13352 7.85613 5.06208 7.84911 4.99236 7.83329C4.99236 7.83329 4.99236 7.76661 4.99236 7.6457V7.43307C4.98991 7.08435 5.0136 6.73594 5.06323 6.39077C5.18359 5.75464 5.53754 5.18653 6.0555 4.79813L6.47242 4.44791L6.32651 4.15191C6.14473 3.6606 6.09301 3.13065 6.1764 2.61348V2.42168C6.21429 2.08972 6.35537 1.778 6.57975 1.53044C6.80413 1.28287 7.10051 1.11193 7.42716 1.04168L7.56475 1H7.98167L8.11091 1.03751C8.43977 1.10115 8.73999 1.26739 8.96847 1.51234C9.19694 1.7573 9.34189 2.06835 9.38251 2.40084V2.54258C9.47478 3.07951 9.42595 3.63121 9.24077 4.14356L9.11153 4.41872L10.7792 5.97802V4.76894C10.7792 4.61468 10.7792 4.4771 10.7792 4.35202C10.8232 3.95281 11.0097 3.58288 11.3046 3.31021C11.5995 3.03754 11.9829 2.88044 12.3843 2.86779C12.4565 2.86366 12.5289 2.86366 12.6011 2.86779C13.0056 2.91562 13.3774 3.11351 13.643 3.42233C13.9086 3.73114 14.0486 4.12838 14.0353 4.53547V5.98634L15.5946 4.51463L15.5571 4.29365C15.5571 4.19359 15.5196 4.09769 15.5029 4.0018C15.4654 3.80168 15.4279 3.61407 15.4112 3.43062C15.3965 3.17373 15.3965 2.91622 15.4112 2.65933V2.57594C15.4086 2.34129 15.4635 2.10958 15.5711 1.90102C15.6786 1.69245 15.8356 1.51337 16.0282 1.37939C16.2088 1.26702 16.4019 1.17606 16.6036 1.10838L16.8496 1.00832H17.2665L17.3332 1.02919L17.5833 1.10423C17.8967 1.20883 18.1697 1.40828 18.3647 1.67495C18.5596 1.94162 18.6669 2.26233 18.6715 2.59264C18.6715 2.69687 18.6715 2.79692 18.6715 2.89698C18.725 3.32094 18.669 3.75155 18.5089 4.14774L18.3588 4.44791L18.8091 4.81897C19.1369 5.07655 19.4021 5.40505 19.5848 5.77982C19.7675 6.15458 19.8629 6.56587 19.8639 6.98279C19.8639 7.20792 19.8639 7.43306 19.8639 7.65819V7.73324C19.8697 7.77053 19.8697 7.80852 19.8639 7.84581C19.8182 7.85199 19.7719 7.85199 19.7263 7.84581H15.2778V9.551C15.2854 9.59654 15.2854 9.64304 15.2778 9.68859C15.2333 9.69142 15.1888 9.69142 15.1443 9.68859H9.77441ZM11.2003 6.53668C11.0808 6.53478 10.9633 6.56813 10.8626 6.63256C10.4543 6.92355 10.1344 7.32162 9.93794 7.78288C9.74151 8.24414 9.67627 8.75068 9.7494 9.24666L9.81195 9.58436H15.1485L15.1735 9.19663C15.2285 8.72327 15.1593 8.24377 14.973 7.8052C14.7866 7.36663 14.4893 6.98407 14.1104 6.69511C13.9845 6.59957 13.8306 6.54828 13.6726 6.5492C13.5698 6.54715 13.4685 6.57464 13.3808 6.62841C13.1034 6.8084 12.7816 6.90798 12.4511 6.91609C12.1203 6.90952 11.798 6.80982 11.5213 6.62841C11.4236 6.57206 11.3131 6.5419 11.2003 6.54085V6.53668ZM7.58559 7.74158C8.13175 7.74158 8.67792 7.74158 9.22825 7.74158C9.41187 7.75999 9.59661 7.71992 9.75609 7.62707C9.91557 7.53423 10.0416 7.39337 10.1163 7.22461L10.183 7.14122C10.245 7.07213 10.2995 6.99667 10.3456 6.91609C10.4486 6.74317 10.4857 6.53882 10.4498 6.34074C10.3117 5.75175 9.97994 5.22616 9.50761 4.84816C9.38423 4.73576 9.22419 4.67205 9.05733 4.66889C8.91789 4.67135 8.78201 4.71326 8.66542 4.78978C8.40638 4.95233 8.10814 5.04165 7.80239 5.04827C7.4928 5.04195 7.19107 4.94958 6.93102 4.78146C6.81806 4.70763 6.68657 4.66715 6.55163 4.66471C6.3882 4.66871 6.23152 4.73078 6.1097 4.83981C5.74084 5.13594 5.45295 5.52063 5.27288 5.95805C5.09282 6.39545 5.02642 6.87134 5.0799 7.34133L5.10908 7.72491L7.58559 7.74158ZM15.8323 4.66889C15.6795 4.66557 15.5309 4.71905 15.4153 4.81897C14.9888 5.1535 14.6652 5.60142 14.4815 6.11141C14.401 6.2837 14.3782 6.47736 14.4165 6.66363C14.4548 6.8499 14.5521 7.01885 14.6941 7.14539C14.7484 7.20097 14.7922 7.26593 14.8233 7.33716C14.8795 7.46754 14.9745 7.57748 15.0953 7.65206C15.2161 7.72664 15.357 7.76226 15.4987 7.75408H19.1635H19.3344L19.7513 7.72906L19.7805 7.36634C19.8332 6.8948 19.7648 6.41761 19.5817 5.97988C19.3986 5.54215 19.1068 5.15835 18.734 4.86483C18.6194 4.76119 18.4715 4.70204 18.3171 4.69807C18.1837 4.70172 18.0538 4.74211 17.9419 4.8148C17.6808 4.99297 17.372 5.08827 17.0559 5.08827C16.7398 5.08827 16.4311 4.99297 16.17 4.8148C16.0738 4.73467 15.9565 4.68401 15.8323 4.66889ZM12.4344 2.93449C12.0378 2.93647 11.6575 3.09234 11.3737 3.36922C11.0898 3.6461 10.9245 4.02235 10.9126 4.41872C10.9126 4.71056 10.9126 5.00243 10.9126 5.29844C10.917 5.70173 11.08 6.08708 11.3664 6.3711C11.6527 6.65511 12.0394 6.81494 12.4427 6.81601C12.8459 6.81291 13.2321 6.65339 13.5198 6.37105C13.8076 6.0887 13.9745 5.70563 13.9853 5.30261C13.9853 5.20255 13.9853 5.10248 13.9853 5.00659V4.72309C13.9853 4.62303 13.9853 4.51878 13.9853 4.41872C13.9713 4.02017 13.803 3.64265 13.516 3.36576C13.229 3.08887 12.8457 2.93424 12.4469 2.93449H12.4344ZM17.083 1.07922C16.6786 1.08029 16.2909 1.24055 16.0037 1.52535C15.7166 1.81015 15.5531 2.19656 15.5488 2.60096C15.5488 2.70519 15.5488 2.80524 15.5488 2.90947V3.15547C15.5488 3.25553 15.5488 3.35558 15.5488 3.45981C15.5693 3.85343 15.7401 4.22418 16.0259 4.49554C16.3118 4.76691 16.691 4.91819 17.0851 4.91819C17.4793 4.91819 17.8584 4.76691 18.1443 4.49554C18.4301 4.22418 18.6009 3.85343 18.6215 3.45981C18.6215 3.17214 18.6215 2.88863 18.6215 2.60096C18.6182 2.19583 18.4552 1.80837 18.1679 1.52268C17.8807 1.23698 17.4923 1.07613 17.0872 1.07504L17.083 1.07922ZM7.79822 1.07922C7.40168 1.0812 7.0214 1.23704 6.73752 1.51392C6.45365 1.7908 6.28836 2.16708 6.27648 2.56345C6.27648 2.85529 6.27648 3.1513 6.27648 3.44314C6.28292 3.84362 6.44486 4.22589 6.72808 4.50911C7.0113 4.79233 7.39357 4.95429 7.79405 4.96074C8.1993 4.96304 8.58927 4.80621 8.88009 4.52397C9.17091 4.24173 9.33935 3.85663 9.34917 3.45149C9.34917 3.35143 9.34917 3.24718 9.34917 3.14712V2.53843C9.32885 2.1443 9.15783 1.77305 8.87149 1.50145C8.58515 1.22986 8.2054 1.07869 7.81074 1.07922H7.79822Z" fill="black"/>
<path d="M9.77441 9.68859C9.72751 9.69668 9.67958 9.69668 9.63268 9.68859C9.62735 9.64428 9.62735 9.59948 9.63268 9.55517V7.85416H5.20499C5.13352 7.85613 5.06208 7.84911 4.99236 7.83329C4.99236 7.83329 4.99236 7.76661 4.99236 7.6457V7.43307C4.98991 7.08435 5.0136 6.73594 5.06323 6.39077C5.18359 5.75464 5.53754 5.18653 6.0555 4.79813L6.47242 4.44791L6.32651 4.15191C6.14473 3.6606 6.09301 3.13065 6.1764 2.61348V2.42168C6.21429 2.08972 6.35537 1.778 6.57975 1.53044C6.80413 1.28287 7.10051 1.11193 7.42716 1.04168L7.56475 1H7.98167L8.11091 1.03751C8.43977 1.10115 8.73999 1.26739 8.96847 1.51234C9.19694 1.7573 9.34189 2.06835 9.38251 2.40084V2.54258C9.47478 3.07951 9.42595 3.63121 9.24077 4.14356L9.11153 4.41872L10.7792 5.97802V4.76894C10.7792 4.61468 10.7792 4.4771 10.7792 4.35202C10.8232 3.95281 11.0097 3.58288 11.3046 3.31021C11.5995 3.03754 11.9829 2.88044 12.3843 2.86779C12.4565 2.86366 12.5289 2.86366 12.6011 2.86779C13.0056 2.91562 13.3774 3.11351 13.643 3.42233C13.9086 3.73114 14.0486 4.12838 14.0353 4.53547V5.98634L15.5946 4.51463L15.5571 4.29365C15.5571 4.19359 15.5196 4.09769 15.5029 4.0018C15.4654 3.80168 15.4279 3.61407 15.4112 3.43062C15.3965 3.17373 15.3965 2.91622 15.4112 2.65933V2.57594C15.4086 2.34129 15.4635 2.10958 15.5711 1.90102C15.6786 1.69245 15.8356 1.51337 16.0282 1.37939C16.2088 1.26702 16.4019 1.17606 16.6036 1.10838L16.8496 1.00832H17.2665L17.3332 1.02919L17.5833 1.10423C17.8967 1.20883 18.1697 1.40828 18.3647 1.67495C18.5596 1.94162 18.6669 2.26233 18.6715 2.59264C18.6715 2.69687 18.6715 2.79692 18.6715 2.89698C18.725 3.32094 18.669 3.75155 18.5089 4.14774L18.3588 4.44791L18.8091 4.81897C19.1369 5.07655 19.4021 5.40505 19.5848 5.77982C19.7675 6.15458 19.8629 6.56587 19.8639 6.98279C19.8639 7.20792 19.8639 7.43306 19.8639 7.65819V7.73324C19.8697 7.77053 19.8697 7.80852 19.8639 7.84581C19.8182 7.85199 19.7719 7.85199 19.7263 7.84581H15.2778V9.551C15.2854 9.59654 15.2854 9.64304 15.2778 9.68859C15.2333 9.69142 15.1888 9.69142 15.1443 9.68859H9.77441ZM11.2003 6.53668C11.0808 6.53478 10.9633 6.56813 10.8626 6.63256C10.4543 6.92355 10.1344 7.32162 9.93794 7.78288C9.74151 8.24414 9.67627 8.75068 9.7494 9.24666L9.81195 9.58436H15.1485L15.1735 9.19663C15.2285 8.72327 15.1593 8.24377 14.973 7.8052C14.7866 7.36663 14.4893 6.98407 14.1104 6.69511C13.9845 6.59957 13.8306 6.54828 13.6726 6.5492C13.5698 6.54715 13.4685 6.57464 13.3808 6.62841C13.1034 6.8084 12.7816 6.90798 12.4511 6.91609C12.1203 6.90952 11.798 6.80982 11.5213 6.62841C11.4236 6.57206 11.3131 6.5419 11.2003 6.54085V6.53668ZM7.58559 7.74158C8.13175 7.74158 8.67792 7.74158 9.22825 7.74158C9.41187 7.75999 9.59661 7.71992 9.75609 7.62707C9.91557 7.53423 10.0416 7.39337 10.1163 7.22461L10.183 7.14122C10.245 7.07213 10.2995 6.99667 10.3456 6.91609C10.4486 6.74317 10.4857 6.53882 10.4498 6.34074C10.3117 5.75175 9.97994 5.22616 9.50761 4.84816C9.38423 4.73576 9.22419 4.67205 9.05733 4.66889C8.91789 4.67135 8.78201 4.71326 8.66542 4.78978C8.40638 4.95233 8.10814 5.04165 7.80239 5.04827C7.4928 5.04195 7.19107 4.94958 6.93102 4.78146C6.81806 4.70763 6.68657 4.66715 6.55163 4.66471C6.3882 4.66871 6.23152 4.73078 6.1097 4.83981C5.74084 5.13594 5.45295 5.52063 5.27288 5.95805C5.09282 6.39545 5.02642 6.87134 5.0799 7.34133L5.10908 7.72491L7.58559 7.74158ZM15.8323 4.66889C15.6795 4.66557 15.5309 4.71905 15.4153 4.81897C14.9888 5.1535 14.6652 5.60142 14.4815 6.11141C14.401 6.2837 14.3782 6.47736 14.4165 6.66363C14.4548 6.8499 14.5521 7.01885 14.6941 7.14539C14.7484 7.20097 14.7922 7.26593 14.8233 7.33716C14.8795 7.46754 14.9745 7.57748 15.0953 7.65206C15.2161 7.72664 15.357 7.76226 15.4987 7.75408H19.1635H19.3344L19.7513 7.72906L19.7805 7.36634C19.8332 6.8948 19.7648 6.41761 19.5817 5.97988C19.3986 5.54215 19.1068 5.15835 18.734 4.86483C18.6194 4.76119 18.4715 4.70204 18.3171 4.69807C18.1837 4.70172 18.0538 4.74211 17.9419 4.8148C17.6808 4.99297 17.372 5.08827 17.0559 5.08827C16.7398 5.08827 16.4311 4.99297 16.17 4.8148C16.0738 4.73467 15.9565 4.68401 15.8323 4.66889ZM12.4344 2.93449C12.0378 2.93647 11.6575 3.09234 11.3737 3.36922C11.0898 3.6461 10.9245 4.02235 10.9126 4.41872C10.9126 4.71056 10.9126 5.00243 10.9126 5.29844C10.917 5.70173 11.08 6.08708 11.3664 6.3711C11.6527 6.65511 12.0394 6.81494 12.4427 6.81601C12.8459 6.81291 13.2321 6.65339 13.5198 6.37105C13.8076 6.0887 13.9745 5.70563 13.9853 5.30261C13.9853 5.20255 13.9853 5.10248 13.9853 5.00659V4.72309C13.9853 4.62303 13.9853 4.51878 13.9853 4.41872C13.9713 4.02017 13.803 3.64265 13.516 3.36576C13.229 3.08887 12.8457 2.93424 12.4469 2.93449H12.4344ZM17.083 1.07922C16.6786 1.08029 16.2909 1.24055 16.0037 1.52535C15.7166 1.81015 15.5531 2.19656 15.5488 2.60096C15.5488 2.70519 15.5488 2.80524 15.5488 2.90947V3.15547C15.5488 3.25553 15.5488 3.35558 15.5488 3.45981C15.5693 3.85343 15.7401 4.22418 16.0259 4.49554C16.3118 4.76691 16.691 4.91819 17.0851 4.91819C17.4793 4.91819 17.8584 4.76691 18.1443 4.49554C18.4301 4.22418 18.6009 3.85343 18.6215 3.45981C18.6215 3.17214 18.6215 2.88863 18.6215 2.60096C18.6182 2.19583 18.4552 1.80837 18.1679 1.52268C17.8807 1.23698 17.4923 1.07613 17.0872 1.07504L17.083 1.07922ZM7.79822 1.07922C7.40168 1.0812 7.0214 1.23704 6.73752 1.51392C6.45365 1.7908 6.28836 2.16708 6.27648 2.56345C6.27648 2.85529 6.27648 3.1513 6.27648 3.44314C6.28292 3.84362 6.44486 4.22589 6.72808 4.50911C7.0113 4.79233 7.39357 4.95429 7.79405 4.96074C8.1993 4.96304 8.58927 4.80621 8.88009 4.52397C9.17091 4.24173 9.33935 3.85663 9.34917 3.45149C9.34917 3.35143 9.34917 3.24718 9.34917 3.14712V2.53843C9.32885 2.1443 9.15783 1.77305 8.87149 1.50145C8.58515 1.22986 8.2054 1.07869 7.81074 1.07922H7.79822Z" stroke="black" stroke-width="0.6" mask="url(#path-2-outside-2_385_400)"/>
<path d="M1.80663 12.5739C1.7411 12.6754 1.70728 12.7942 1.70948 12.915C1.71238 13.0745 1.77777 13.2265 1.8916 13.3382C2.00542 13.45 2.15857 13.5126 2.31808 13.5125C2.4389 13.5125 2.557 13.4765 2.65733 13.4092C2.75764 13.3418 2.83563 13.2461 2.88135 13.1342C2.92707 13.0224 2.93847 12.8994 2.91407 12.7811C2.88968 12.6627 2.83061 12.5543 2.74438 12.4696C2.65815 12.385 2.54866 12.3279 2.42989 12.3057C2.31112 12.2835 2.18841 12.2971 2.0774 12.3449C1.96639 12.3926 1.87215 12.4724 1.80663 12.5739Z" fill="black" stroke="black" stroke-width="0.3"/>
<path d="M2.28294 12.8739L2.23416 12.8295C2.23439 12.8293 2.23461 12.829 2.23483 12.8288C2.25145 12.8109 2.27372 12.7994 2.29767 12.7963C2.29839 12.7962 2.29912 12.7961 2.29985 12.796L2.34971 12.9245C2.35198 12.921 2.35377 12.9172 2.35501 12.9132C2.3561 12.9097 2.35677 12.9061 2.357 12.9024C2.35706 12.9014 2.35709 12.9004 2.35709 12.8994L2.35199 12.8938L2.33921 12.8797L2.32583 12.865L2.31538 12.8535C2.31258 12.854 2.30985 12.8547 2.3072 12.8556C2.3064 12.8559 2.30561 12.8562 2.30483 12.8565C2.29729 12.8596 2.29056 12.8645 2.28528 12.8708C2.28446 12.8718 2.28368 12.8728 2.28294 12.8739ZM2.28294 12.8739L2.23416 12.8295C2.21765 12.8477 2.20809 12.8711 2.20716 12.8956L2.2426 12.8998L2.26454 12.8998L2.2754 12.8899C2.27693 12.8842 2.27948 12.8787 2.28294 12.8739ZM2.1238 12.8963C2.12225 12.921 2.12564 12.9459 2.13377 12.9694C2.14297 12.9959 2.1581 13.0203 2.17835 13.0406C2.19859 13.0608 2.223 13.076 2.24956 13.0852L2.24956 13.0852C2.27634 13.0944 2.3049 13.0975 2.3331 13.0942L2.31538 12.9452M2.1238 12.8963L2.42341 12.9103C2.42314 12.914 2.42266 12.9176 2.422 12.9212C2.41889 12.9378 2.41156 12.9536 2.40051 12.9668C2.39831 12.9695 2.39598 12.972 2.39353 12.9744C2.37903 12.9885 2.3605 12.998 2.34037 13.0014L2.33021 12.9413C2.32556 12.9434 2.32055 12.9448 2.31538 12.9452M2.1238 12.8963C2.12526 12.8519 2.14142 12.8091 2.17004 12.7748C2.20062 12.7381 2.24331 12.7136 2.2904 12.7056L2.3712 12.692L2.42635 12.7526L2.46805 12.7984L2.50685 12.8411L2.50709 12.8987C2.50729 12.9478 2.48907 12.9951 2.45615 13.0313C2.4231 13.0677 2.37769 13.0902 2.32902 13.0946L2.31538 12.9452M2.1238 12.8963L2.30666 12.9452C2.30955 12.9456 2.31248 12.9456 2.31538 12.9452" fill="black" stroke="black" stroke-width="0.3"/>
<path d="M15.3005 16.1364C15.1877 16.2389 15.1172 16.3799 15.1028 16.5316C15.0947 16.6166 15.1044 16.7024 15.1314 16.7834C15.1584 16.8644 15.202 16.9388 15.2594 17.002C15.3168 17.0651 15.3868 17.1156 15.4649 17.1501C15.543 17.1847 15.6274 17.2025 15.7128 17.2025C15.7981 17.2025 15.8826 17.1847 15.9606 17.1501C16.0387 17.1156 16.1087 17.0651 16.1661 17.002C16.2235 16.9388 16.2672 16.8644 16.2942 16.7834C16.3212 16.7023 16.3309 16.6166 16.3228 16.5316C16.3083 16.3799 16.2378 16.2389 16.125 16.1364C16.0122 16.0338 15.8652 15.977 15.7128 15.977C15.5603 15.977 15.4133 16.0338 15.3005 16.1364Z" fill="black" stroke="black" stroke-width="0.3"/>
<path d="M15.6679 16.5395H15.61C15.6102 16.5415 15.6106 16.544 15.6112 16.5468C15.6124 16.5529 15.6149 16.5629 15.6202 16.5745C15.625 16.585 15.632 16.5968 15.6424 16.6084C15.648 16.6147 15.6546 16.6208 15.6624 16.6267C15.6662 16.6295 15.67 16.6321 15.6737 16.6343C15.6896 16.6439 15.7043 16.6483 15.7138 16.6502C15.7139 16.6503 15.714 16.6503 15.7141 16.6503C15.716 16.6507 15.7177 16.651 15.7191 16.6512C15.7216 16.6508 15.7247 16.6502 15.7283 16.6492C15.7365 16.6471 15.7489 16.6426 15.7624 16.634C15.7723 16.6276 15.7828 16.619 15.7925 16.6074C15.7984 16.6003 15.803 16.5933 15.8068 16.5866C15.8136 16.5742 15.8173 16.5627 15.8193 16.5543C15.8204 16.5498 15.821 16.5462 15.8213 16.5437C15.8215 16.5422 15.8217 16.5407 15.8218 16.5395C15.8218 16.5395 15.8218 16.5395 15.8218 16.5395H15.6679ZM15.6679 16.5395L15.6719 16.5435M15.7762 16.735L15.8199 16.6914L15.8657 16.6455L15.9096 16.6016V16.5395C15.9096 16.5393 15.9096 16.5391 15.9096 16.5389C15.9096 16.53 15.9096 16.5097 15.9055 16.4887C15.9005 16.4634 15.8861 16.4195 15.8423 16.3866C15.8048 16.3585 15.7656 16.3544 15.7525 16.3532C15.7389 16.3519 15.724 16.3519 15.7158 16.352C15.7151 16.352 15.7144 16.352 15.7138 16.352C15.6977 16.352 15.6751 16.3529 15.651 16.3594C15.6252 16.3663 15.5902 16.3815 15.5621 16.4153C15.5346 16.4482 15.5268 16.4831 15.5242 16.5024C15.5224 16.5153 15.5221 16.5281 15.5221 16.5349C15.521 16.5581 15.5242 16.5814 15.5315 16.6037C15.54 16.6295 15.5539 16.6529 15.5717 16.6726C15.5897 16.6924 15.6118 16.7083 15.6365 16.7191C15.6608 16.7298 15.6874 16.7355 15.7145 16.7353L15.7762 16.735Z" fill="black" stroke="black" stroke-width="0.3"/>
</svg>
