<svg width="27" height="25" viewBox="0 0 27 25" fill="none" xmlns="http://www.w3.org/2000/svg">
<path d="M0.00277478 19.5808C0.126944 19.3831 0.310075 19.3311 0.534134 19.3359C0.998899 19.3449 1.46436 19.3359 1.96034 19.3359V18.9745C1.96034 14.4836 1.96034 9.99273 1.96034 5.50184C1.96034 4.53069 2.45147 3.81343 3.29776 3.56995C3.49757 3.51515 3.70378 3.48716 3.91097 3.4867C4.71564 3.47768 5.52031 3.4867 6.32498 3.4867H6.63991V2.4108C6.63991 2.12501 6.63505 1.83921 6.63991 1.55411C6.64172 1.1466 6.80413 0.756226 7.0919 0.467677C7.37967 0.179129 7.7696 0.0156675 8.1771 0.0127503C8.91241 -0.00251067 9.6484 0.00789403 10.3837 0.00789403C12.4169 0.00789403 14.4507 0.0141388 16.4839 0.000958921C16.6245 -0.00536774 16.7647 0.0196728 16.8944 0.0742645C17.0241 0.128856 17.1401 0.21163 17.2338 0.316583C18.0239 1.12888 18.8293 1.928 19.636 2.72296C19.8441 2.9269 20.0196 3.12599 19.9329 3.47352C20.0487 3.47838 20.141 3.48601 20.2298 3.48601C21.0352 3.48601 21.8398 3.48601 22.6445 3.48601C23.8494 3.48601 24.6277 4.27334 24.6284 5.49768C24.6284 9.98857 24.6284 14.4795 24.6284 18.9703V19.3366H25.9686C26.5076 19.3366 26.5895 19.4136 26.5832 19.9498C26.5756 20.6671 26.6193 21.3913 26.5312 22.1002C26.3925 23.2351 25.4248 24.0425 24.2802 24.0911C24.1935 24.0946 24.1068 24.0946 24.0208 24.0946H2.55482C1.37557 24.0946 0.469622 23.4869 0.126944 22.4665C0.0776923 22.3201 0.0423145 22.1689 0 22.0198L0.00277478 19.5808ZM16.4097 0.73418H8.33596C7.68528 0.73418 7.3648 1.05466 7.3648 1.70533C7.3648 5.88406 7.3648 10.0628 7.3648 14.2415C7.3648 14.9061 7.68182 15.2175 8.35538 15.2175H18.2466C18.9139 15.2175 19.2247 14.9033 19.2247 14.229C19.2247 10.7685 19.2247 7.30773 19.2247 3.84672C19.2247 3.75516 19.2163 3.66359 19.2115 3.54983C18.6607 3.54983 18.1342 3.54983 17.6084 3.54983C16.8675 3.54497 16.4132 3.08853 16.4104 2.35045C16.4076 1.82603 16.4097 1.30092 16.4097 0.73418ZM22.4281 5.69191H19.953V6.01378C19.953 8.73902 19.953 11.4647 19.953 14.1909C19.9597 14.372 19.9459 14.5532 19.9121 14.7313C19.7345 15.4881 19.1206 15.9466 18.2882 15.9473C14.9828 15.9473 11.6774 15.9313 8.37203 15.9584C7.40088 15.966 6.61632 15.2709 6.62881 14.2082C6.66141 11.4737 6.63991 8.73925 6.63991 6.00476V5.68844H4.16624V19.322H22.4281V5.69191ZM0.749175 20.0816C0.749175 20.7156 0.713797 21.3386 0.765129 21.9546C0.787327 22.2279 0.941324 22.5185 1.11197 22.7467C1.45881 23.2198 1.97144 23.371 2.54997 23.371C9.71245 23.3669 16.8752 23.3669 24.0381 23.371C24.1248 23.371 24.2115 23.371 24.2975 23.3669C25.0606 23.3204 25.7002 22.7925 25.8146 22.0399C25.884 21.5737 25.8514 21.0916 25.8618 20.6171C25.866 20.4396 25.8618 20.2627 25.8618 20.0816H16.9244C16.9244 20.2405 16.9244 20.3848 16.9244 20.5297C16.9078 21.2581 16.4014 21.7686 15.6758 21.7714C14.0928 21.776 12.5098 21.776 10.9269 21.7714C10.1853 21.7714 9.67823 21.256 9.66921 20.511C9.66921 20.3723 9.66921 20.237 9.66921 20.0837L0.749175 20.0816ZM6.62812 4.21437H4.006C3.12734 4.21437 2.68801 4.65601 2.68801 5.5393C2.68801 10.0362 2.68801 14.5336 2.68801 19.0314V19.322H3.4247V18.9752C3.4247 14.4871 3.4247 9.99851 3.4247 5.50947C3.4247 5.08425 3.55581 4.95453 3.97964 4.95453C4.74038 4.95453 5.50135 4.95453 6.26255 4.95453H6.62603L6.62812 4.21437ZM23.8904 19.329C23.8959 19.2506 23.9035 19.1902 23.9035 19.1334C23.9035 14.5583 23.9035 9.98325 23.9035 5.4082C23.9035 4.68261 23.418 4.21645 22.6896 4.21368C21.8507 4.2109 21.012 4.2109 20.1736 4.21368C20.1042 4.21368 20.0411 4.22408 19.9731 4.22963V4.94759H22.5335C23.0635 4.94759 23.1689 5.05373 23.1689 5.5837V19.329H23.8904ZM10.3934 20.0837C10.3934 20.2432 10.3893 20.3806 10.3934 20.5186C10.4073 20.8565 10.5918 21.0417 10.9359 21.0424C12.5082 21.0451 14.0822 21.0451 15.6578 21.0424C15.9997 21.0424 16.1815 20.8551 16.1954 20.5131C16.2009 20.3744 16.1954 20.2356 16.1954 20.0837H10.3934ZM17.1429 1.35433C17.1429 1.71782 17.1207 2.11322 17.1575 2.50237C17.1679 2.61544 17.3399 2.79164 17.4509 2.80204C17.8401 2.8395 18.2348 2.81661 18.6302 2.81661L17.1429 1.35433Z" fill="black"/>
<path d="M14.286 6.76783C14.286 7.20276 14.286 7.60025 14.286 7.99634C14.286 8.34318 14.1604 8.46387 13.8177 8.46596C13.3853 8.46596 12.9532 8.46596 12.5212 8.46596C12.1945 8.46596 12.0648 8.33693 12.0613 8.0116C12.0572 7.60718 12.0613 7.20276 12.0613 6.76783C11.6493 6.76783 11.2622 6.76783 10.8758 6.76783C10.4895 6.76783 10.3792 6.67071 10.3771 6.28225C10.3743 5.86604 10.3743 5.44983 10.3771 5.03363C10.3771 4.64863 10.4811 4.54805 10.8765 4.54805C11.2719 4.54805 11.6507 4.54805 12.0613 4.54805C12.0613 4.13184 12.0613 3.74269 12.0613 3.35492C12.0613 2.96715 12.1793 2.85686 12.5532 2.85547C12.9772 2.85547 13.4008 2.85547 13.824 2.85547C14.1653 2.85547 14.2853 2.98103 14.2874 3.32856C14.2874 3.72465 14.2874 4.12074 14.2874 4.54805C14.6952 4.54805 15.0823 4.54805 15.4666 4.54805C15.8689 4.54805 15.9785 4.65765 15.9813 5.05305C15.9813 5.46926 15.9813 5.88546 15.9813 6.30167C15.9813 6.64851 15.8592 6.76505 15.5096 6.76713C15.1149 6.76921 14.7188 6.76783 14.286 6.76783ZM13.559 7.7258C13.559 7.34497 13.559 6.9905 13.559 6.63672C13.559 6.12548 13.645 6.04085 14.1673 6.04085H15.2391V5.2778C14.8485 5.2778 14.476 5.2778 14.107 5.2778C13.6603 5.2778 13.5625 5.17653 13.5625 4.72286C13.5625 4.34619 13.5625 3.96952 13.5625 3.60187H12.7862C12.7862 3.99935 12.7862 4.37879 12.7862 4.75754C12.7862 5.17375 12.685 5.27364 12.2618 5.27572C11.8844 5.27572 11.5064 5.27572 11.1214 5.27572V6.03877C11.5286 6.03877 11.9164 6.03877 12.3041 6.03877C12.6676 6.03877 12.7842 6.16086 12.7855 6.52435C12.7855 6.91974 12.7855 7.31583 12.7855 7.72372L13.559 7.7258Z" fill="black"/>
<path d="M13.2914 9.76382H17.4958C17.5825 9.76382 17.6914 9.73469 17.7504 9.77631C17.8669 9.85747 18.0244 9.97123 18.0369 10.0857C18.0493 10.2001 17.9259 10.3562 17.8211 10.445C17.7518 10.5047 17.6068 10.4887 17.4965 10.4887C14.6936 10.4887 11.8902 10.4887 9.0863 10.4887C9.0433 10.4887 9.00029 10.4887 8.95658 10.4887C8.68605 10.4776 8.5154 10.3278 8.52373 10.1093C8.53205 9.89076 8.69507 9.76243 8.95658 9.76243C10.4031 9.76012 11.8481 9.76058 13.2914 9.76382Z" fill="black"/>
<path d="M13.2668 13.0967C12.4275 13.0967 11.5881 13.0967 10.7488 13.0967C10.4408 13.0967 10.2812 12.9704 10.2812 12.7367C10.2812 12.5029 10.4477 12.3711 10.7495 12.3711C12.4453 12.3711 14.1411 12.3711 15.8369 12.3711C16.1387 12.3711 16.3052 12.5057 16.3052 12.7374C16.3052 12.969 16.1449 13.0932 15.8369 13.0932C14.9805 13.0965 14.1238 13.0976 13.2668 13.0967Z" fill="black"/>
</svg>
