<svg width="26" height="24" viewBox="0 0 26 24" fill="none" xmlns="http://www.w3.org/2000/svg">
<mask id="path-1-outside-1_385_393" maskUnits="userSpaceOnUse" x="0" y="0" width="22" height="22" fill="black">
<rect fill="white" width="22" height="22"/>
<path d="M5.88773 21.3448C5.64592 21.3401 5.4075 21.2884 5.18643 21.193C4.96537 21.0975 4.76609 20.96 4.60027 20.7887L4.53881 20.7289C4.40668 20.6033 4.28377 20.4837 4.17008 20.3581C3.88831 20.0493 3.73578 19.6489 3.74261 19.2359C3.74944 18.823 3.91512 18.4275 4.20695 18.1276C4.56646 17.7509 4.94132 17.3951 5.29468 17.0632C5.38612 16.9847 5.44726 16.8782 5.46794 16.7613C5.48862 16.6444 5.46759 16.5241 5.40837 16.4204C5.18099 15.9181 4.95363 15.3859 4.73239 14.8387C4.69972 14.7304 4.63095 14.6358 4.53693 14.5698C4.44291 14.5037 4.32899 14.47 4.2131 14.4739H2.84574C1.69962 14.4739 1.00211 13.7713 1.00211 12.659V12.6052C0.994184 12.3613 1.00859 12.1171 1.04513 11.8757C1.11533 11.522 1.30437 11.2012 1.5825 10.9636C1.86063 10.7259 2.21206 10.5851 2.58149 10.5631C2.83653 10.5631 3.11614 10.5421 3.45721 10.5421H4.07175H4.17929C4.30851 10.5494 4.43639 10.5132 4.54153 10.4398C4.64667 10.3663 4.7227 10.26 4.75696 10.1385C4.93825 9.68104 5.14414 9.20264 5.42683 8.58073C5.48468 8.47975 5.50495 8.36244 5.48423 8.2486C5.46352 8.13475 5.40308 8.03136 5.31312 7.95584C5.05501 7.71665 4.80613 7.46848 4.55417 7.2233L4.35443 7.02895C3.54938 6.2396 3.55246 5.2589 4.35443 4.46656L4.40053 4.42172C4.50808 4.31707 4.61562 4.20943 4.72932 4.12273C5.04895 3.84217 5.46342 3.68573 5.89387 3.68319C6.33358 3.6853 6.75579 3.85113 7.0738 4.14663C7.42716 4.46955 7.76209 4.80442 8.13389 5.17518C8.18431 5.2323 8.24641 5.27857 8.31626 5.311C8.3861 5.34344 8.46212 5.36133 8.53947 5.36354C8.63452 5.36168 8.72795 5.33922 8.81295 5.29777C9.29843 5.08848 9.83003 4.8732 10.4384 4.64297C10.5512 4.60977 10.6494 4.54083 10.7173 4.44711C10.7852 4.35338 10.819 4.24025 10.8133 4.1257C10.8133 3.67123 10.8133 3.22872 10.8133 2.76228C10.8009 2.52515 10.8405 2.28817 10.9292 2.06701C11.018 1.84585 11.1541 1.64556 11.3283 1.47937C11.5026 1.31318 11.7112 1.18487 11.9402 1.10296C12.1692 1.02105 12.4135 0.9874 12.6569 1.00421H12.7399C12.9843 0.997016 13.229 1.01 13.4712 1.04306C13.8395 1.10521 14.1753 1.28676 14.4241 1.55818C14.6729 1.8296 14.8201 2.17493 14.8416 2.53804C14.8693 2.97457 14.8631 3.43504 14.86 3.85961V4.05993C14.8456 4.19162 14.8797 4.324 14.9563 4.43351C15.0328 4.54302 15.1468 4.62255 15.2779 4.65792C15.788 4.8433 16.2858 5.0496 16.8757 5.30673C16.9587 5.34441 17.0485 5.36576 17.14 5.36953C17.2119 5.36749 17.2825 5.35103 17.3476 5.32119C17.4126 5.29135 17.4706 5.24877 17.518 5.19611C17.8498 4.85824 18.197 4.52637 18.5227 4.21541C18.6861 4.05003 18.8816 3.91782 19.0978 3.82647C19.3141 3.73511 19.5468 3.68641 19.7825 3.68319C20.2558 3.69008 20.7073 3.87806 21.0393 4.20643C21.4234 4.56224 21.8198 4.93001 21.8812 5.45026C21.8906 5.58665 21.8906 5.7235 21.8812 5.85989L21.3466 5.72833C21.3219 5.52508 21.2547 5.32892 21.149 5.152C21.0433 4.97508 20.9013 4.82117 20.732 4.69978L20.6306 4.6041C20.5231 4.48815 20.3918 4.39544 20.2452 4.33199C20.0986 4.26853 19.9399 4.23574 19.7795 4.23574C19.619 4.23574 19.4603 4.26853 19.3137 4.33199C19.1671 4.39544 19.0358 4.48815 18.9283 4.6041L18.1202 5.38747L17.5456 5.94659C17.3858 6.09907 17.3121 6.11702 17.2691 6.11702C17.1716 6.1037 17.0789 6.06782 16.9987 6.01238C16.2714 5.5695 15.4741 5.24624 14.6388 5.05559C14.3315 4.98383 14.2854 4.93599 14.2854 4.62204C14.2854 4.3081 14.2854 3.99115 14.2854 3.67721C14.2854 3.36326 14.2854 3.10613 14.2854 2.81909C14.2854 2.00583 13.8245 1.56033 12.998 1.55734H12.6508C12.4823 1.54329 12.3128 1.56516 12.154 1.62145C11.9952 1.67775 11.8509 1.76709 11.7312 1.88326C11.6115 1.99942 11.5194 2.1396 11.4611 2.29401C11.4029 2.44842 11.38 2.61334 11.394 2.77725C11.394 3.16893 11.394 3.56061 11.394 3.9493V4.56523C11.394 4.61606 11.394 4.6639 11.394 4.71174C11.394 4.91804 11.3264 4.98681 11.1328 5.03166C10.2478 5.23134 9.40275 5.57179 8.63167 6.03927C8.56773 6.08219 8.4938 6.10891 8.41657 6.11702C8.39199 6.11702 8.31517 6.11702 8.16461 5.9735L7.3995 5.25591L6.76653 4.63998C6.65749 4.51721 6.52256 4.41873 6.37092 4.35122C6.21928 4.28372 6.05449 4.24877 5.88773 4.24877C5.72098 4.24877 5.55617 4.28372 5.40453 4.35122C5.25289 4.41873 5.11796 4.51721 5.00892 4.63998C4.87987 4.76556 4.77233 4.86721 4.67093 4.97186C4.55695 5.07537 4.46607 5.20059 4.40393 5.33973C4.34179 5.47886 4.30972 5.62894 4.30972 5.78065C4.30972 5.93235 4.34179 6.08243 4.40393 6.22157C4.46607 6.3607 4.55695 6.48593 4.67093 6.58943C4.95977 6.88843 5.25474 7.16051 5.54665 7.44455L6.05365 7.93789C6.28718 8.16512 6.29639 8.23689 6.12125 8.50598C5.67569 9.19993 5.35074 9.96062 5.15948 10.7574C5.07959 11.0893 5.03043 11.1252 4.68014 11.1282H2.83651C2.6662 11.1111 2.49413 11.131 2.33266 11.1864C2.17119 11.2418 2.02435 11.3313 1.9027 11.4485C1.78105 11.5658 1.68762 11.7078 1.62913 11.8643C1.57063 12.0209 1.54854 12.1882 1.56442 12.354V12.7188C1.55039 12.8827 1.57329 13.0476 1.63153 13.202C1.68977 13.3565 1.78194 13.4966 1.90161 13.6128C2.02128 13.729 2.16556 13.8183 2.32439 13.8746C2.48321 13.9309 2.65274 13.9528 2.82115 13.9387H4.82764C5.03966 13.9387 5.09804 14.0314 5.13492 14.1719C5.33953 15.0503 5.69591 15.8884 6.18885 16.6506C6.28104 16.7941 6.29639 16.8928 6.12432 17.0632C5.8447 17.3383 5.56509 17.6104 5.2824 17.8825L4.72009 18.4117C4.59207 18.5167 4.48917 18.6476 4.41857 18.7953C4.34798 18.943 4.31141 19.1039 4.31141 19.2668C4.31141 19.4297 4.34798 19.5906 4.41857 19.7383C4.48917 19.8861 4.59207 20.017 4.72009 20.1219L4.76619 20.1698C4.86451 20.2655 4.95977 20.3611 5.07346 20.4508C5.18103 20.5603 5.31027 20.6474 5.45338 20.7069C5.5965 20.7664 5.75054 20.7971 5.90617 20.7971C6.0618 20.7971 6.21582 20.7664 6.35894 20.7069C6.50205 20.6474 6.63129 20.5603 6.73886 20.4508L7.66068 19.5688L8.13389 19.1054C8.29981 18.9469 8.37356 18.9259 8.41965 18.9259C8.53006 18.9408 8.63533 18.9808 8.72692 19.0426C8.85597 19.1173 8.98503 19.1831 9.11408 19.2489C9.24314 19.3146 9.34146 19.3685 9.45208 19.4312C9.45208 19.6256 9.45208 19.8259 9.45208 20.0292C9.24006 19.9336 9.04033 19.8379 8.83753 19.7302C8.75179 19.684 8.6559 19.6584 8.55791 19.6555C8.48597 19.6572 8.41519 19.6735 8.35011 19.7033C8.28502 19.7332 8.22706 19.776 8.17997 19.8289C7.8727 20.1279 7.56542 20.4269 7.25815 20.7259L7.1967 20.7857C7.02862 20.9601 6.82599 21.0995 6.60102 21.1956C6.37605 21.2917 6.13342 21.3425 5.88773 21.3448Z"/>
</mask>
<path d="M5.88773 21.3448C5.64592 21.3401 5.4075 21.2884 5.18643 21.193C4.96537 21.0975 4.76609 20.96 4.60027 20.7887L4.53881 20.7289C4.40668 20.6033 4.28377 20.4837 4.17008 20.3581C3.88831 20.0493 3.73578 19.6489 3.74261 19.2359C3.74944 18.823 3.91512 18.4275 4.20695 18.1276C4.56646 17.7509 4.94132 17.3951 5.29468 17.0632C5.38612 16.9847 5.44726 16.8782 5.46794 16.7613C5.48862 16.6444 5.46759 16.5241 5.40837 16.4204C5.18099 15.9181 4.95363 15.3859 4.73239 14.8387C4.69972 14.7304 4.63095 14.6358 4.53693 14.5698C4.44291 14.5037 4.32899 14.47 4.2131 14.4739H2.84574C1.69962 14.4739 1.00211 13.7713 1.00211 12.659V12.6052C0.994184 12.3613 1.00859 12.1171 1.04513 11.8757C1.11533 11.522 1.30437 11.2012 1.5825 10.9636C1.86063 10.7259 2.21206 10.5851 2.58149 10.5631C2.83653 10.5631 3.11614 10.5421 3.45721 10.5421H4.07175H4.17929C4.30851 10.5494 4.43639 10.5132 4.54153 10.4398C4.64667 10.3663 4.7227 10.26 4.75696 10.1385C4.93825 9.68104 5.14414 9.20264 5.42683 8.58073C5.48468 8.47975 5.50495 8.36244 5.48423 8.2486C5.46352 8.13475 5.40308 8.03136 5.31312 7.95584C5.05501 7.71665 4.80613 7.46848 4.55417 7.2233L4.35443 7.02895C3.54938 6.2396 3.55246 5.2589 4.35443 4.46656L4.40053 4.42172C4.50808 4.31707 4.61562 4.20943 4.72932 4.12273C5.04895 3.84217 5.46342 3.68573 5.89387 3.68319C6.33358 3.6853 6.75579 3.85113 7.0738 4.14663C7.42716 4.46955 7.76209 4.80442 8.13389 5.17518C8.18431 5.2323 8.24641 5.27857 8.31626 5.311C8.3861 5.34344 8.46212 5.36133 8.53947 5.36354C8.63452 5.36168 8.72795 5.33922 8.81295 5.29777C9.29843 5.08848 9.83003 4.8732 10.4384 4.64297C10.5512 4.60977 10.6494 4.54083 10.7173 4.44711C10.7852 4.35338 10.819 4.24025 10.8133 4.1257C10.8133 3.67123 10.8133 3.22872 10.8133 2.76228C10.8009 2.52515 10.8405 2.28817 10.9292 2.06701C11.018 1.84585 11.1541 1.64556 11.3283 1.47937C11.5026 1.31318 11.7112 1.18487 11.9402 1.10296C12.1692 1.02105 12.4135 0.9874 12.6569 1.00421H12.7399C12.9843 0.997016 13.229 1.01 13.4712 1.04306C13.8395 1.10521 14.1753 1.28676 14.4241 1.55818C14.6729 1.8296 14.8201 2.17493 14.8416 2.53804C14.8693 2.97457 14.8631 3.43504 14.86 3.85961V4.05993C14.8456 4.19162 14.8797 4.324 14.9563 4.43351C15.0328 4.54302 15.1468 4.62255 15.2779 4.65792C15.788 4.8433 16.2858 5.0496 16.8757 5.30673C16.9587 5.34441 17.0485 5.36576 17.14 5.36953C17.2119 5.36749 17.2825 5.35103 17.3476 5.32119C17.4126 5.29135 17.4706 5.24877 17.518 5.19611C17.8498 4.85824 18.197 4.52637 18.5227 4.21541C18.6861 4.05003 18.8816 3.91782 19.0978 3.82647C19.3141 3.73511 19.5468 3.68641 19.7825 3.68319C20.2558 3.69008 20.7073 3.87806 21.0393 4.20643C21.4234 4.56224 21.8198 4.93001 21.8812 5.45026C21.8906 5.58665 21.8906 5.7235 21.8812 5.85989L21.3466 5.72833C21.3219 5.52508 21.2547 5.32892 21.149 5.152C21.0433 4.97508 20.9013 4.82117 20.732 4.69978L20.6306 4.6041C20.5231 4.48815 20.3918 4.39544 20.2452 4.33199C20.0986 4.26853 19.9399 4.23574 19.7795 4.23574C19.619 4.23574 19.4603 4.26853 19.3137 4.33199C19.1671 4.39544 19.0358 4.48815 18.9283 4.6041L18.1202 5.38747L17.5456 5.94659C17.3858 6.09907 17.3121 6.11702 17.2691 6.11702C17.1716 6.1037 17.0789 6.06782 16.9987 6.01238C16.2714 5.5695 15.4741 5.24624 14.6388 5.05559C14.3315 4.98383 14.2854 4.93599 14.2854 4.62204C14.2854 4.3081 14.2854 3.99115 14.2854 3.67721C14.2854 3.36326 14.2854 3.10613 14.2854 2.81909C14.2854 2.00583 13.8245 1.56033 12.998 1.55734H12.6508C12.4823 1.54329 12.3128 1.56516 12.154 1.62145C11.9952 1.67775 11.8509 1.76709 11.7312 1.88326C11.6115 1.99942 11.5194 2.1396 11.4611 2.29401C11.4029 2.44842 11.38 2.61334 11.394 2.77725C11.394 3.16893 11.394 3.56061 11.394 3.9493V4.56523C11.394 4.61606 11.394 4.6639 11.394 4.71174C11.394 4.91804 11.3264 4.98681 11.1328 5.03166C10.2478 5.23134 9.40275 5.57179 8.63167 6.03927C8.56773 6.08219 8.4938 6.10891 8.41657 6.11702C8.39199 6.11702 8.31517 6.11702 8.16461 5.9735L7.3995 5.25591L6.76653 4.63998C6.65749 4.51721 6.52256 4.41873 6.37092 4.35122C6.21928 4.28372 6.05449 4.24877 5.88773 4.24877C5.72098 4.24877 5.55617 4.28372 5.40453 4.35122C5.25289 4.41873 5.11796 4.51721 5.00892 4.63998C4.87987 4.76556 4.77233 4.86721 4.67093 4.97186C4.55695 5.07537 4.46607 5.20059 4.40393 5.33973C4.34179 5.47886 4.30972 5.62894 4.30972 5.78065C4.30972 5.93235 4.34179 6.08243 4.40393 6.22157C4.46607 6.3607 4.55695 6.48593 4.67093 6.58943C4.95977 6.88843 5.25474 7.16051 5.54665 7.44455L6.05365 7.93789C6.28718 8.16512 6.29639 8.23689 6.12125 8.50598C5.67569 9.19993 5.35074 9.96062 5.15948 10.7574C5.07959 11.0893 5.03043 11.1252 4.68014 11.1282H2.83651C2.6662 11.1111 2.49413 11.131 2.33266 11.1864C2.17119 11.2418 2.02435 11.3313 1.9027 11.4485C1.78105 11.5658 1.68762 11.7078 1.62913 11.8643C1.57063 12.0209 1.54854 12.1882 1.56442 12.354V12.7188C1.55039 12.8827 1.57329 13.0476 1.63153 13.202C1.68977 13.3565 1.78194 13.4966 1.90161 13.6128C2.02128 13.729 2.16556 13.8183 2.32439 13.8746C2.48321 13.9309 2.65274 13.9528 2.82115 13.9387H4.82764C5.03966 13.9387 5.09804 14.0314 5.13492 14.1719C5.33953 15.0503 5.69591 15.8884 6.18885 16.6506C6.28104 16.7941 6.29639 16.8928 6.12432 17.0632C5.8447 17.3383 5.56509 17.6104 5.2824 17.8825L4.72009 18.4117C4.59207 18.5167 4.48917 18.6476 4.41857 18.7953C4.34798 18.943 4.31141 19.1039 4.31141 19.2668C4.31141 19.4297 4.34798 19.5906 4.41857 19.7383C4.48917 19.8861 4.59207 20.017 4.72009 20.1219L4.76619 20.1698C4.86451 20.2655 4.95977 20.3611 5.07346 20.4508C5.18103 20.5603 5.31027 20.6474 5.45338 20.7069C5.5965 20.7664 5.75054 20.7971 5.90617 20.7971C6.0618 20.7971 6.21582 20.7664 6.35894 20.7069C6.50205 20.6474 6.63129 20.5603 6.73886 20.4508L7.66068 19.5688L8.13389 19.1054C8.29981 18.9469 8.37356 18.9259 8.41965 18.9259C8.53006 18.9408 8.63533 18.9808 8.72692 19.0426C8.85597 19.1173 8.98503 19.1831 9.11408 19.2489C9.24314 19.3146 9.34146 19.3685 9.45208 19.4312C9.45208 19.6256 9.45208 19.8259 9.45208 20.0292C9.24006 19.9336 9.04033 19.8379 8.83753 19.7302C8.75179 19.684 8.6559 19.6584 8.55791 19.6555C8.48597 19.6572 8.41519 19.6735 8.35011 19.7033C8.28502 19.7332 8.22706 19.776 8.17997 19.8289C7.8727 20.1279 7.56542 20.4269 7.25815 20.7259L7.1967 20.7857C7.02862 20.9601 6.82599 21.0995 6.60102 21.1956C6.37605 21.2917 6.13342 21.3425 5.88773 21.3448Z" fill="black"/>
<path d="M5.88773 21.3448C5.64592 21.3401 5.4075 21.2884 5.18643 21.193C4.96537 21.0975 4.76609 20.96 4.60027 20.7887L4.53881 20.7289C4.40668 20.6033 4.28377 20.4837 4.17008 20.3581C3.88831 20.0493 3.73578 19.6489 3.74261 19.2359C3.74944 18.823 3.91512 18.4275 4.20695 18.1276C4.56646 17.7509 4.94132 17.3951 5.29468 17.0632C5.38612 16.9847 5.44726 16.8782 5.46794 16.7613C5.48862 16.6444 5.46759 16.5241 5.40837 16.4204C5.18099 15.9181 4.95363 15.3859 4.73239 14.8387C4.69972 14.7304 4.63095 14.6358 4.53693 14.5698C4.44291 14.5037 4.32899 14.47 4.2131 14.4739H2.84574C1.69962 14.4739 1.00211 13.7713 1.00211 12.659V12.6052C0.994184 12.3613 1.00859 12.1171 1.04513 11.8757C1.11533 11.522 1.30437 11.2012 1.5825 10.9636C1.86063 10.7259 2.21206 10.5851 2.58149 10.5631C2.83653 10.5631 3.11614 10.5421 3.45721 10.5421H4.07175H4.17929C4.30851 10.5494 4.43639 10.5132 4.54153 10.4398C4.64667 10.3663 4.7227 10.26 4.75696 10.1385C4.93825 9.68104 5.14414 9.20264 5.42683 8.58073C5.48468 8.47975 5.50495 8.36244 5.48423 8.2486C5.46352 8.13475 5.40308 8.03136 5.31312 7.95584C5.05501 7.71665 4.80613 7.46848 4.55417 7.2233L4.35443 7.02895C3.54938 6.2396 3.55246 5.2589 4.35443 4.46656L4.40053 4.42172C4.50808 4.31707 4.61562 4.20943 4.72932 4.12273C5.04895 3.84217 5.46342 3.68573 5.89387 3.68319C6.33358 3.6853 6.75579 3.85113 7.0738 4.14663C7.42716 4.46955 7.76209 4.80442 8.13389 5.17518C8.18431 5.2323 8.24641 5.27857 8.31626 5.311C8.3861 5.34344 8.46212 5.36133 8.53947 5.36354C8.63452 5.36168 8.72795 5.33922 8.81295 5.29777C9.29843 5.08848 9.83003 4.8732 10.4384 4.64297C10.5512 4.60977 10.6494 4.54083 10.7173 4.44711C10.7852 4.35338 10.819 4.24025 10.8133 4.1257C10.8133 3.67123 10.8133 3.22872 10.8133 2.76228C10.8009 2.52515 10.8405 2.28817 10.9292 2.06701C11.018 1.84585 11.1541 1.64556 11.3283 1.47937C11.5026 1.31318 11.7112 1.18487 11.9402 1.10296C12.1692 1.02105 12.4135 0.9874 12.6569 1.00421H12.7399C12.9843 0.997016 13.229 1.01 13.4712 1.04306C13.8395 1.10521 14.1753 1.28676 14.4241 1.55818C14.6729 1.8296 14.8201 2.17493 14.8416 2.53804C14.8693 2.97457 14.8631 3.43504 14.86 3.85961V4.05993C14.8456 4.19162 14.8797 4.324 14.9563 4.43351C15.0328 4.54302 15.1468 4.62255 15.2779 4.65792C15.788 4.8433 16.2858 5.0496 16.8757 5.30673C16.9587 5.34441 17.0485 5.36576 17.14 5.36953C17.2119 5.36749 17.2825 5.35103 17.3476 5.32119C17.4126 5.29135 17.4706 5.24877 17.518 5.19611C17.8498 4.85824 18.197 4.52637 18.5227 4.21541C18.6861 4.05003 18.8816 3.91782 19.0978 3.82647C19.3141 3.73511 19.5468 3.68641 19.7825 3.68319C20.2558 3.69008 20.7073 3.87806 21.0393 4.20643C21.4234 4.56224 21.8198 4.93001 21.8812 5.45026C21.8906 5.58665 21.8906 5.7235 21.8812 5.85989L21.3466 5.72833C21.3219 5.52508 21.2547 5.32892 21.149 5.152C21.0433 4.97508 20.9013 4.82117 20.732 4.69978L20.6306 4.6041C20.5231 4.48815 20.3918 4.39544 20.2452 4.33199C20.0986 4.26853 19.9399 4.23574 19.7795 4.23574C19.619 4.23574 19.4603 4.26853 19.3137 4.33199C19.1671 4.39544 19.0358 4.48815 18.9283 4.6041L18.1202 5.38747L17.5456 5.94659C17.3858 6.09907 17.3121 6.11702 17.2691 6.11702C17.1716 6.1037 17.0789 6.06782 16.9987 6.01238C16.2714 5.5695 15.4741 5.24624 14.6388 5.05559C14.3315 4.98383 14.2854 4.93599 14.2854 4.62204C14.2854 4.3081 14.2854 3.99115 14.2854 3.67721C14.2854 3.36326 14.2854 3.10613 14.2854 2.81909C14.2854 2.00583 13.8245 1.56033 12.998 1.55734H12.6508C12.4823 1.54329 12.3128 1.56516 12.154 1.62145C11.9952 1.67775 11.8509 1.76709 11.7312 1.88326C11.6115 1.99942 11.5194 2.1396 11.4611 2.29401C11.4029 2.44842 11.38 2.61334 11.394 2.77725C11.394 3.16893 11.394 3.56061 11.394 3.9493V4.56523C11.394 4.61606 11.394 4.6639 11.394 4.71174C11.394 4.91804 11.3264 4.98681 11.1328 5.03166C10.2478 5.23134 9.40275 5.57179 8.63167 6.03927C8.56773 6.08219 8.4938 6.10891 8.41657 6.11702C8.39199 6.11702 8.31517 6.11702 8.16461 5.9735L7.3995 5.25591L6.76653 4.63998C6.65749 4.51721 6.52256 4.41873 6.37092 4.35122C6.21928 4.28372 6.05449 4.24877 5.88773 4.24877C5.72098 4.24877 5.55617 4.28372 5.40453 4.35122C5.25289 4.41873 5.11796 4.51721 5.00892 4.63998C4.87987 4.76556 4.77233 4.86721 4.67093 4.97186C4.55695 5.07537 4.46607 5.20059 4.40393 5.33973C4.34179 5.47886 4.30972 5.62894 4.30972 5.78065C4.30972 5.93235 4.34179 6.08243 4.40393 6.22157C4.46607 6.3607 4.55695 6.48593 4.67093 6.58943C4.95977 6.88843 5.25474 7.16051 5.54665 7.44455L6.05365 7.93789C6.28718 8.16512 6.29639 8.23689 6.12125 8.50598C5.67569 9.19993 5.35074 9.96062 5.15948 10.7574C5.07959 11.0893 5.03043 11.1252 4.68014 11.1282H2.83651C2.6662 11.1111 2.49413 11.131 2.33266 11.1864C2.17119 11.2418 2.02435 11.3313 1.9027 11.4485C1.78105 11.5658 1.68762 11.7078 1.62913 11.8643C1.57063 12.0209 1.54854 12.1882 1.56442 12.354V12.7188C1.55039 12.8827 1.57329 13.0476 1.63153 13.202C1.68977 13.3565 1.78194 13.4966 1.90161 13.6128C2.02128 13.729 2.16556 13.8183 2.32439 13.8746C2.48321 13.9309 2.65274 13.9528 2.82115 13.9387H4.82764C5.03966 13.9387 5.09804 14.0314 5.13492 14.1719C5.33953 15.0503 5.69591 15.8884 6.18885 16.6506C6.28104 16.7941 6.29639 16.8928 6.12432 17.0632C5.8447 17.3383 5.56509 17.6104 5.2824 17.8825L4.72009 18.4117C4.59207 18.5167 4.48917 18.6476 4.41857 18.7953C4.34798 18.943 4.31141 19.1039 4.31141 19.2668C4.31141 19.4297 4.34798 19.5906 4.41857 19.7383C4.48917 19.8861 4.59207 20.017 4.72009 20.1219L4.76619 20.1698C4.86451 20.2655 4.95977 20.3611 5.07346 20.4508C5.18103 20.5603 5.31027 20.6474 5.45338 20.7069C5.5965 20.7664 5.75054 20.7971 5.90617 20.7971C6.0618 20.7971 6.21582 20.7664 6.35894 20.7069C6.50205 20.6474 6.63129 20.5603 6.73886 20.4508L7.66068 19.5688L8.13389 19.1054C8.29981 18.9469 8.37356 18.9259 8.41965 18.9259C8.53006 18.9408 8.63533 18.9808 8.72692 19.0426C8.85597 19.1173 8.98503 19.1831 9.11408 19.2489C9.24314 19.3146 9.34146 19.3685 9.45208 19.4312C9.45208 19.6256 9.45208 19.8259 9.45208 20.0292C9.24006 19.9336 9.04033 19.8379 8.83753 19.7302C8.75179 19.684 8.6559 19.6584 8.55791 19.6555C8.48597 19.6572 8.41519 19.6735 8.35011 19.7033C8.28502 19.7332 8.22706 19.776 8.17997 19.8289C7.8727 20.1279 7.56542 20.4269 7.25815 20.7259L7.1967 20.7857C7.02862 20.9601 6.82599 21.0995 6.60102 21.1956C6.37605 21.2917 6.13342 21.3425 5.88773 21.3448Z" stroke="black" stroke-width="0.2" mask="url(#path-1-outside-1_385_393)"/>
<path d="M11.3872 23.0542V23.0541C11.318 23.0541 11.2318 23.0451 11.1603 22.9898C11.0871 22.9332 11.0398 22.8366 11.03 22.6844L11.0299 22.6824L11.0299 22.6824C10.993 21.2054 10.9592 19.7608 10.95 18.3102L10.95 18.3044L10.9503 18.3045C10.966 18.1594 11.0285 18.023 11.1285 17.9149C12.4291 16.3823 13.7349 14.8536 15.0457 13.3289L11.3872 23.0542ZM11.3872 23.0542L11.39 23.054M11.3872 23.0542L11.39 23.054M11.39 23.054C11.4437 23.0509 11.497 23.0425 11.549 23.0289L12.6717 22.805C12.6718 22.805 12.6719 22.805 12.672 22.805C13.1944 22.7052 13.7211 22.6018 14.2492 22.4982C14.7468 22.4005 15.2457 22.3027 15.7436 22.2072C15.9135 22.1804 16.0671 22.092 16.1732 21.9594M11.39 23.054L16.1732 21.9594M20.9706 7.86374L20.9107 7.86513C20.8135 7.86737 20.7183 7.89133 20.6323 7.93509C20.5463 7.97885 20.4719 8.0412 20.4148 8.11723L20.4134 8.11917L20.4133 8.11914C20.1304 8.46033 19.8413 8.79846 19.5524 9.13341C19.5524 9.13343 19.5524 9.13345 19.5524 9.13347L19.1561 9.59675L19.1559 9.59698C19.1251 9.63252 19.0966 9.66985 19.0705 9.70873L19.069 9.71094L19.069 9.7109L18.8889 9.95053L22.8514 13.1783L24.3007 11.4872L20.9706 7.86374ZM20.9706 7.86374L20.9695 7.85885M20.9706 7.86374L20.9695 7.85885M20.9695 7.85885C21.0381 7.87164 21.104 7.89576 21.1643 7.93029L21.1639 7.93107L21.1728 7.93417C21.389 8.00867 21.5916 8.11609 21.7731 8.25238C22.2994 8.66974 22.8256 9.10025 23.3522 9.53104C23.44 9.60287 23.5278 9.67471 23.6157 9.74649C23.6157 9.74649 23.6157 9.74649 23.6157 9.7465L24.0581 10.1083L24.0587 10.1087C24.1458 10.1778 24.2269 10.2537 24.3011 10.3358C24.4866 10.5531 24.5729 10.7345 24.5733 10.9102C24.5736 11.086 24.488 11.2682 24.3007 11.4872L20.9695 7.85885ZM16.1732 21.9594C16.3507 21.748 16.5299 21.5402 16.7098 21.3316C16.7662 21.2662 16.8226 21.2008 16.8791 21.1351L16.1732 21.9594ZM17.0829 10.9579L15.0457 13.3289L16.8791 21.1351L18.5906 19.1528L18.5907 19.1527C20.7067 16.6891 22.8196 14.2224 24.9295 11.7528C25.0629 11.6016 25.1608 11.4237 25.2163 11.2316L25.2164 11.2316L25.2171 11.2285C25.2794 10.947 25.2566 10.654 25.1516 10.3848C25.0469 10.1164 24.8649 9.88326 24.6277 9.71329C23.8482 9.04008 23.0243 8.38721 22.2268 7.75528L22.185 7.72214L22.1849 7.72203L22.0411 7.60892C22.041 7.60884 22.0409 7.60875 22.0408 7.60866C21.7131 7.34208 21.299 7.19738 20.8723 7.20003L20.8716 7.20005C20.664 7.20454 20.4606 7.257 20.2779 7.35317C20.0959 7.44899 19.9397 7.5855 19.8222 7.75158C18.9111 8.82334 17.9981 9.8921 17.0829 10.9579C17.0829 10.9579 17.0829 10.9579 17.0829 10.9579ZM11.6953 18.9936L15.0605 21.6725L11.6953 22.3451V18.9936ZM15.7777 21.413L11.7631 18.2134L18.43 10.444L22.4144 13.67L15.7777 21.413Z" fill="black" stroke="black" stroke-width="0.1"/>
<path d="M10.0542 16.8243L10.0915 16.8467L10.1189 16.813L10.4661 16.3854L10.5027 16.3404L10.4527 16.3108C9.92259 15.9974 9.4631 15.5831 9.10175 15.0927C8.7404 14.6024 8.48461 14.0461 8.34969 13.4574L8.34966 13.4573C8.20489 12.8333 8.20163 12.1862 8.34011 11.561C8.47859 10.9357 8.75552 10.3472 9.15166 9.83653L9.15167 9.83654L9.15236 9.83561C9.53181 9.32246 10.0233 8.89725 10.5917 8.59054C11.1597 8.28408 11.7903 8.10354 12.4384 8.06191H12.4385H12.4393H12.4401H12.4409H12.4417H12.4425H12.4433H12.4441H12.4449H12.4457H12.4465H12.4474H12.4482H12.449H12.4498H12.4506H12.4514H12.4522H12.453H12.4538H12.4546H12.4554H12.4563H12.4571H12.4579H12.4587H12.4595H12.4603H12.4611H12.4619H12.4627H12.4635H12.4643H12.4651H12.466H12.4668H12.4676H12.4684H12.4692H12.47H12.4708H12.4716H12.4724H12.4732H12.474H12.4748H12.4756H12.4764H12.4773H12.4781H12.4789H12.4797H12.4805H12.4813H12.4821H12.4829H12.4837H12.4845H12.4853H12.4861H12.4869H12.4877H12.4885H12.4894H12.4902H12.491H12.4918H12.4926H12.4934H12.4942H12.495H12.4958H12.4966H12.4974H12.4982H12.499H12.4998H12.5006H12.5014H12.5022H12.503H12.5038H12.5047H12.5055H12.5063H12.5071H12.5079H12.5087H12.5095H12.5103H12.5111H12.5119H12.5127H12.5135H12.5143H12.5151H12.5159H12.5167H12.5175H12.5183H12.5191H12.5199H12.5207H12.5215H12.5223H12.5231H12.524H12.5248H12.5256H12.5264H12.5272H12.528H12.5288H12.5296H12.5304H12.5312H12.532H12.5328H12.5336H12.5344H12.5352H12.536H12.5368H12.5376H12.5384H12.5392H12.54H12.5408H12.5416H12.5424H12.5432H12.544H12.5448H12.5456H12.5464H12.5472H12.548H12.5488H12.5496H12.5504H12.5512H12.552H12.5528H12.5536H12.5544H12.5552H12.556H12.5568H12.5576H12.5584H12.5592H12.56H12.5608H12.5616H12.5625H12.5633H12.5641H12.5649H12.5657H12.5665H12.5673H12.5681H12.5689H12.5697H12.5705H12.5713H12.5721H12.5729H12.5737H12.5745H12.5753H12.5761H12.5769H12.5777H12.5785H12.5793H12.5801H12.5809H12.5817H12.5825H12.5833H12.5841H12.5849H12.5857H12.5865H12.5873H12.5881H12.5889H12.5897H12.5905H12.5913H12.592H12.5928H12.5936H12.5944H12.5952H12.596H12.5968H12.5976H12.5984H12.5992H12.6H12.6008H12.6016H12.6024H12.6032H12.604H12.6048H12.6056H12.6064H12.6072H12.608H12.6088H12.6096H12.6104H12.6112H12.612H12.6128H12.6136H12.6144H12.6152H12.616H12.6168H12.6176H12.6184H12.6192H12.62H12.6208H12.6216H12.6224H12.6232H12.624H12.6248H12.6256H12.6264H12.6272H12.628H12.6288H12.6296H12.6304H12.6312H12.632H12.6328H12.6335H12.6343H12.6351H12.6359H12.6367H12.6375H12.6383H12.6391H12.6399H12.6407H12.6415H12.6423H12.6431H12.6439H12.6447H12.6455H12.6463H12.6471H12.6479H12.6487H12.6495H12.6503H12.6511H12.6519H12.6527H12.6535H12.6543H12.6551H12.6559H12.6566H12.6574H12.6582H12.659H12.6598H12.6606H12.6614H12.6622H12.663H12.6638H12.6646H12.6654H12.6662H12.667H12.6678H12.6686H12.6694H12.6702H12.671H12.6718H12.6726H12.6734H12.6742H12.6749H12.6757H12.6765H12.6773H12.6781H12.6789H12.6797H12.6805H12.6813H12.6821H12.6829H12.6837H12.6845H12.6853H12.6861H12.6869H12.6877H12.6885H12.6893H12.6901H12.6908H12.6916H12.6924H12.6932H12.694H12.6948H12.6956H12.6964H12.6972H12.698H12.6988H12.6996H12.7004H12.7012H12.702H12.7028H12.7036H12.7044H12.7052H12.7059H12.7067H12.7075H12.7083H12.7091H12.7099H12.7107H12.7115H12.7123H12.7131H12.7139H12.7147H12.7155H12.7163H12.7171H12.7179H12.7187H12.7194H12.7202H12.721H12.7218H12.7226H12.7234H12.7242H12.725H12.7258H12.7266H12.7274H12.7282H12.729H12.7298H12.7306H12.7313H12.7321H12.7329H12.7337H12.7345H12.7353H12.7361H12.7369H12.7377H12.7385H12.7393H12.7401H12.7409H12.7417H12.7425H12.7433H12.744H12.7448H12.7456H12.7464H12.7472H12.748H12.7488H12.7496H12.7504H12.7512H12.752H12.7528H12.7536H12.7544H12.7551H12.7559H12.7567H12.7575H12.7583H12.7591H12.7599H12.7607H12.7615H12.7623H12.7631H12.7639H12.7647H12.7655H12.7663H12.767H12.7678H12.7686H12.7694H12.7702H12.771H12.7718H12.7726H12.7734H12.7742H12.775H12.7758H12.7766H12.7773H12.7781H12.7789H12.7797H12.7805H12.7813H12.7821H12.7829H12.7837H12.7845H12.7853H12.7861H12.7869H12.7877H12.7884H12.7892H12.79H12.7908H12.7916H12.7924H12.7932H12.794H12.7948H12.7956H12.7964H12.7972H12.798H12.7987H12.7995H12.8003H12.8011H12.8019H12.8027H12.8035H12.8043H12.8051H12.8059H12.8067H12.8075H12.8083H12.809H12.8098H12.8106H12.8114H12.8122H12.813H12.8138H12.8146H12.8154H12.8162H12.817H12.8178H12.8186H12.8193H12.8201H12.8209H12.8217H12.8225H12.8233H12.8241H12.8249H12.8257H12.8265H12.8273H12.8281H12.8289H12.8296H12.8304H12.8312H12.832H12.8328H12.8336H12.8344H12.8352H12.836H12.8368H12.8376H12.8384H12.8392H12.8399H12.8407H12.8415H12.8423H12.8431H12.8439H12.8447L12.8455 8.06191L12.8457 8.06191C13.4907 8.05948 14.1285 8.19278 14.7155 8.4526C15.3025 8.71242 15.8248 9.0926 16.2465 9.56702L16.2846 9.60985L16.3218 9.56633L16.6906 9.13577L16.7198 9.10168L16.689 9.06898C16.0141 8.35182 15.1438 7.83615 14.1796 7.58183C13.2154 7.32751 12.1969 7.34495 11.2425 7.63215L11.2423 7.63221C10.2859 7.92421 9.43555 8.47745 8.79262 9.22631C8.14967 9.97518 7.7412 10.8881 7.61597 11.8567C7.49073 12.8252 7.65404 13.8083 8.08638 14.689C8.51872 15.5696 9.20182 16.3107 10.0542 16.8243Z" fill="black" stroke="black" stroke-width="0.1"/>
</svg>
