<svg width="35" height="35" viewBox="0 0 35 35" fill="none" xmlns="http://www.w3.org/2000/svg">
<rect x="0.398438" width="34.4" height="34.4" fill="white" fill-opacity="0.5"/>
<path d="M15.7225 26.374C15.7225 26.2959 15.7225 26.2178 15.7225 26.1398V17.9993H13.0156V14.749H15.7225V14.5148C15.7225 13.6656 15.7225 12.8067 15.7225 11.9575C15.7251 10.9459 16.0903 9.97163 16.747 9.22449C17.2723 8.66529 17.9524 8.28996 18.6926 8.15078C19.3122 8.03102 19.9444 7.99821 20.5724 8.0532C21.0705 8.0532 21.5686 8.11174 22.0668 8.15078H22.189V11.079H22.0103C21.3994 11.079 20.7791 11.079 20.1305 11.079C19.9745 11.0704 19.8185 11.0962 19.6728 11.1546C19.527 11.2131 19.3948 11.3028 19.2847 11.418C19.1747 11.5332 19.0894 11.6712 19.0343 11.8231C18.9792 11.9749 18.9556 12.1371 18.9651 12.2991C18.9651 13.0799 18.9651 13.8706 18.9651 14.6514V14.71H22.0385L21.6345 17.9603H18.9557C18.9525 18.0188 18.9525 18.0775 18.9557 18.136V26.1983C18.9557 26.1983 18.9557 26.2862 18.9557 26.3252L15.7225 26.374Z" fill="black"/>
</svg>
