<svg width="35" height="35" viewBox="0 0 35 35" fill="none" xmlns="http://www.w3.org/2000/svg">
<rect width="34.4" height="34.4" fill="white" fill-opacity="0.5"/>
<path d="M14.4844 26.3713V14.0824H18.1576V15.7952L18.2607 15.6611C18.5657 15.1531 18.9844 14.7227 19.484 14.404C19.9835 14.0853 20.5503 13.8869 21.1395 13.8245C21.8901 13.7158 22.6548 13.7579 23.3889 13.9483C24.0247 14.0883 24.6087 14.4029 25.0753 14.8568C25.542 15.3107 25.8727 15.8858 26.0303 16.5175C26.2178 17.1591 26.3285 17.8206 26.3605 18.4883C26.3605 18.5811 26.3605 18.6843 26.3605 18.7875V26.3713H22.5531C22.5531 24.2354 22.5531 22.0996 22.5531 19.9534C22.55 19.5524 22.5155 19.1522 22.45 18.7566C22.4299 18.3361 22.2538 17.9382 21.9562 17.6406C21.6586 17.343 21.2607 17.1669 20.8403 17.1469C20.5687 17.0857 20.2873 17.0822 20.0143 17.1365C19.7412 17.1908 19.4826 17.3017 19.2551 17.4621C19.0276 17.6226 18.8362 17.8289 18.6934 18.0678C18.5505 18.3068 18.4594 18.573 18.4259 18.8494C18.33 19.3387 18.285 19.8366 18.2917 20.3352C18.2917 22.3988 18.2917 24.3593 18.2917 26.3713H14.4844Z" fill="black"/>
<path d="M8.26562 26.3729C8.26562 26.2903 8.26562 26.2078 8.26562 26.1252V14.084H12.0936V26.1252C12.0936 26.2078 12.0936 26.2903 12.0936 26.3729H8.26562Z" fill="black"/>
<path d="M10.1242 12.402C9.67897 12.3905 9.24751 12.2458 8.88528 11.9867C8.52306 11.7276 8.24676 11.366 8.09202 10.9484C7.93729 10.5308 7.91113 10.0764 8.01708 9.64386C8.12303 9.21129 8.35619 8.82037 8.6864 8.52154C9.01661 8.22271 9.42878 8.02966 9.86974 7.96728C10.3107 7.90491 10.7603 7.97606 11.1604 8.17158C11.5605 8.3671 11.8929 8.67801 12.1146 9.06422C12.3364 9.45043 12.4374 9.89423 12.4046 10.3384C12.3599 10.9085 12.0988 11.4399 11.6748 11.8236C11.2508 12.2073 10.6959 12.4143 10.1242 12.402Z" fill="black"/>
</svg>
