<svg width="139" height="48" viewBox="0 0 139 48" fill="none" xmlns="http://www.w3.org/2000/svg">
<g clip-path="url(#clip0_177_4096)">
<mask id="mask0_177_4096" style="mask-type:luminance" maskUnits="userSpaceOnUse" x="0" y="0" width="68" height="48">
<path d="M67.9173 0H0.703125V47.7468H67.9173V0Z" fill="white"/>
</mask>
<g mask="url(#mask0_177_4096)">
<path d="M68.4512 -0.152344L0.302402 14.6558L0.109375 47.7565H68.4512V-0.152344Z" fill="#D7282F"/>
</g>
<path d="M7.86474 40.7889C3.80101 40.7889 0.610981 38.7631 0.46875 34.9547H5.38587C5.3862 35.2532 5.44866 35.5484 5.56928 35.8215C5.6899 36.0947 5.86607 36.34 6.08664 36.5418C6.30721 36.7436 6.56739 36.8976 6.85072 36.994C7.13405 37.0905 7.43436 37.1272 7.73267 37.102C9.0737 37.102 9.93725 36.4335 9.93725 35.3295C9.93725 31.8351 0.46875 33.719 0.529706 27.0138C0.529706 23.4384 3.46575 21.4531 7.42789 21.4531C11.5627 21.4531 14.3362 23.4789 14.5394 27.0948H9.54103C9.53222 26.8215 9.468 26.5529 9.35225 26.305C9.2365 26.0571 9.07161 25.8351 8.86752 25.6525C8.66343 25.4698 8.42437 25.3302 8.16473 25.2422C7.90509 25.1541 7.63025 25.1193 7.35678 25.14C7.11078 25.1009 6.85915 25.1167 6.61998 25.1861C6.38081 25.2555 6.16005 25.3769 5.97354 25.5416C5.78704 25.7062 5.63944 25.91 5.54134 26.1383C5.44324 26.3666 5.39708 26.6137 5.40619 26.8619C5.40619 30.1334 14.7731 28.6546 14.7731 34.9648C14.7731 38.1453 12.2841 40.7787 7.86474 40.7787" fill="white"/>
<path d="M18.6513 29.3739H16.8125V25.5959H18.6513V21.9395H23.2637V25.5959H26.3115V29.3739H23.2637V35.4512C23.2637 36.3324 23.6396 36.7071 24.6657 36.7071H26.3115V40.6067H23.9647C20.8356 40.6067 18.6513 39.2899 18.6513 35.3904V29.3739Z" fill="white"/>
<path d="M33.8155 40.5963H29.2031V25.5957H33.8155V28.0974C34.311 27.2898 35.0047 26.6214 35.8313 26.1553C36.6579 25.6892 37.59 25.4408 38.5396 25.4336V30.2954H37.2696C35.0854 30.2954 33.8155 31.055 33.8155 33.6379V40.5963Z" fill="white"/>
<path d="M46.7794 25.3819C47.6895 25.3353 48.5961 25.5256 49.4101 25.934C50.2241 26.3424 50.9175 26.955 51.4222 27.7115V25.5946H56.0345V40.5952H51.4222V38.4885C50.9073 39.2469 50.2046 39.8598 49.3823 40.268C48.56 40.6761 47.6459 40.8656 46.7286 40.8181C43.061 40.8181 40.125 37.7795 40.125 33.0696C40.125 28.3597 43.061 25.3819 46.759 25.3819M48.1102 29.4334C46.3831 29.4334 44.8186 30.7299 44.8186 33.1202C44.8186 35.5106 46.3831 36.8577 48.1102 36.8577C49.8373 36.8577 51.4019 35.541 51.4019 33.1506C51.4019 30.7602 49.878 29.3726 48.1306 29.3726" fill="white"/>
<path d="M60.4224 29.3739H58.5938V25.5959H60.4224V21.9395H65.0144V25.5959H68.0622V29.3739H65.0144V35.4512C65.0144 36.3324 65.3903 36.7071 66.4164 36.7071H68.0622V40.6067H65.7358C62.6067 40.6067 60.4224 39.2899 60.4224 35.3904V29.3739Z" fill="white"/>
<path d="M76.6965 25.3819C77.6066 25.3353 78.5132 25.5256 79.3272 25.934C80.1413 26.3424 80.8347 26.955 81.3394 27.7115V25.5946H85.9517V40.5952H81.3394V38.4885C80.8275 39.2457 80.1286 39.8587 79.3101 40.2685C78.4916 40.6783 77.581 40.8711 76.6661 40.8282C72.9985 40.8282 70.0625 37.7896 70.0625 33.0797C70.0625 28.3699 72.9985 25.392 76.6965 25.392M78.0477 29.4435C76.3206 29.4435 74.7561 30.74 74.7561 33.1304C74.7561 35.5207 76.3206 36.8679 78.0477 36.8679C79.7748 36.8679 81.3394 35.5511 81.3394 33.1608C81.3394 30.7704 79.7951 29.3726 78.0477 29.3726" fill="#D7282F"/>
<path d="M95.3325 25.3825C96.2415 25.3337 97.1475 25.523 97.9602 25.9317C98.773 26.3405 99.4643 26.9543 99.9651 27.7121V25.5952H104.577V40.5756C104.577 44.5765 102.261 48 97.0494 48C92.5793 48 89.6636 45.7311 89.2572 42.1557H93.8187C94.1134 43.2901 95.2512 44.0194 96.8665 44.0194C98.6241 44.0194 99.9956 43.0977 99.9956 40.5756V38.4891C99.4916 39.2466 98.801 39.8624 97.9898 40.2774C97.1786 40.6924 96.2741 40.8928 95.363 40.8592C91.665 40.8592 88.7188 37.8206 88.7188 33.1108C88.7188 28.4009 91.665 25.4231 95.363 25.4231M96.704 29.4745C94.9769 29.4745 93.4124 30.771 93.4124 33.1614C93.4124 35.5518 94.9769 36.8989 96.704 36.8989C98.4311 36.8989 99.9651 35.4505 99.9651 33.1006C99.9651 30.7508 98.4311 29.3733 96.6735 29.3733" fill="#D7282F"/>
<path d="M107.826 21.5652C107.771 21.0136 107.884 20.4581 108.152 19.972C108.419 19.4859 108.828 19.0919 109.324 18.8419C109.82 18.5918 110.381 18.4975 110.932 18.5713C111.483 18.6451 111.999 18.8835 112.412 19.2553C112.824 19.627 113.114 20.1145 113.243 20.6538C113.373 21.193 113.335 21.7586 113.136 22.2761C112.936 22.7937 112.584 23.2388 112.126 23.5531C111.668 23.8673 111.125 24.0359 110.569 24.0366C110.224 24.0643 109.877 24.0214 109.549 23.9104C109.221 23.7994 108.919 23.6228 108.663 23.3913C108.406 23.1599 108.199 22.8785 108.055 22.5644C107.911 22.2504 107.833 21.9104 107.826 21.5652ZM108.253 25.6167H112.865V40.5971H108.253V25.6167Z" fill="#D7282F"/>
<path d="M121.144 20.7031H116.531V40.6061H121.144V20.7031Z" fill="#D7282F"/>
<path d="M131.5 40.8183C127.071 40.8183 123.891 37.8607 123.891 33.1002C123.891 28.3397 127.02 25.3822 131.5 25.3822C132.499 25.3264 133.499 25.4816 134.434 25.8376C135.369 26.1935 136.218 26.7422 136.926 27.4477C137.633 28.1533 138.184 28.9998 138.541 29.932C138.898 30.8641 139.053 31.8609 138.998 32.8572C138.995 33.304 138.968 33.7503 138.916 34.1941H128.472C128.46 34.5736 128.525 34.9516 128.664 35.3049C128.804 35.6582 129.014 35.9795 129.282 36.2488C129.551 36.5182 129.871 36.7301 130.225 36.8714C130.578 37.0128 130.957 37.0806 131.337 37.0707C131.838 37.1045 132.337 36.9836 132.766 36.7244C133.195 36.4652 133.533 36.0803 133.735 35.6223H138.642C138.23 37.1681 137.3 38.5268 136.006 39.4722C134.713 40.4176 133.133 40.8927 131.53 40.8183M128.483 31.6417H134.253C134.253 31.2815 134.178 30.9253 134.032 30.5957C133.887 30.2661 133.674 29.9704 133.407 29.7274C133.14 29.4844 132.826 29.2995 132.483 29.1844C132.141 29.0693 131.779 29.0265 131.419 29.0589C130.692 29.0376 129.984 29.2926 129.439 29.7722C128.894 30.2518 128.552 30.9201 128.483 31.6417Z" fill="#D7282F"/>
</g>
<defs>
<clipPath id="clip0_177_4096">
<rect width="139" height="48" fill="white"/>
</clipPath>
</defs>
</svg>
