<svg width="123" height="42" viewBox="0 0 123 42" fill="none" xmlns="http://www.w3.org/2000/svg">
<g clip-path="url(#clip0_177_4113)">
<mask id="mask0_177_4113" style="mask-type:luminance" maskUnits="userSpaceOnUse" x="0" y="0" width="61" height="42">
<path d="M60.1023 0H0.625V41.7784H60.1023V0Z" fill="white"/>
</mask>
<g mask="url(#mask0_177_4113)">
<path d="M60.5689 -0.132812L0.264558 12.8244L0.09375 41.7874H60.5689V-0.132812Z" fill="#D7282F"/>
</g>
<path d="M6.95872 35.6902C3.36275 35.6902 0.539921 33.9177 0.414062 30.5854H4.76518C4.76548 30.8465 4.82074 31.1048 4.92748 31.3438C5.03422 31.5829 5.19011 31.7975 5.38529 31.9741C5.58047 32.1507 5.8107 32.2854 6.06142 32.3698C6.31213 32.4541 6.57788 32.4863 6.84185 32.4642C8.02852 32.4642 8.79266 31.8793 8.79266 30.9133C8.79266 27.8557 0.414062 29.5041 0.468002 23.6371C0.468002 20.5086 3.06609 18.7715 6.57215 18.7715C10.231 18.7715 12.6853 20.544 12.8651 23.708H8.44206C8.43425 23.4688 8.37743 23.2337 8.275 23.0168C8.17257 22.7999 8.02667 22.6057 7.84607 22.4459C7.66547 22.2861 7.45392 22.164 7.22417 22.0869C6.99442 22.0098 6.75122 21.9794 6.50922 21.9975C6.29154 21.9633 6.06888 21.9771 5.85724 22.0378C5.6456 22.0986 5.45025 22.2048 5.28521 22.3489C5.12018 22.4929 4.98956 22.6712 4.90276 22.871C4.81595 23.0707 4.7751 23.287 4.78316 23.5041C4.78316 26.3668 13.0719 25.0728 13.0719 30.5942C13.0719 33.3771 10.8693 35.6814 6.95872 35.6814" fill="white"/>
<path d="M16.5022 25.7005H14.875V22.3947H16.5022V19.1953H20.5836V22.3947H23.2806V25.7005H20.5836V31.0181C20.5836 31.7891 20.9162 32.117 21.8242 32.117H23.2806V35.5291H21.2039C18.435 35.5291 16.5022 34.377 16.5022 30.9649V25.7005Z" fill="white"/>
<path d="M29.9174 35.5213H25.8359V22.3957H29.9174V24.5848C30.3558 23.8781 30.9697 23.2932 31.7012 22.8854C32.4326 22.4775 33.2574 22.2602 34.0977 22.2539V26.508H32.9739C31.0411 26.508 29.9174 27.1727 29.9174 29.4326V35.5213Z" fill="white"/>
<path d="M41.404 22.2092C42.2094 22.1684 43.0116 22.3349 43.7319 22.6922C44.4522 23.0496 45.0658 23.5856 45.5124 24.2476V22.3953H49.5938V35.5208H45.5124V33.6774C45.0568 34.341 44.435 34.8773 43.7073 35.2345C42.9797 35.5916 42.1708 35.7574 41.3591 35.7158C38.1137 35.7158 35.5156 33.057 35.5156 28.9359C35.5156 24.8148 38.1137 22.2092 41.386 22.2092M42.5817 25.7542C41.0534 25.7542 39.669 26.8886 39.669 28.9802C39.669 31.0718 41.0534 32.2505 42.5817 32.2505C44.11 32.2505 45.4944 31.0984 45.4944 29.0068C45.4944 26.9152 44.1459 25.701 42.5997 25.701" fill="white"/>
<path d="M53.4776 25.7005H51.8594V22.3947H53.4776V19.1953H57.541V22.3947H60.238V25.7005H57.541V31.0181C57.541 31.7891 57.8736 32.117 58.7816 32.117H60.238V35.5291H58.1793C55.4104 35.5291 53.4776 34.377 53.4776 30.9649V25.7005Z" fill="white"/>
<path d="M67.8704 22.2092C68.6757 22.1684 69.478 22.3349 70.1983 22.6922C70.9186 23.0496 71.5322 23.5856 71.9788 24.2476V22.3953H76.0602V35.5208H71.9788V33.6774C71.5258 34.34 70.9074 34.8764 70.1831 35.235C69.4588 35.5935 68.653 35.7622 67.8434 35.7247C64.5981 35.7247 62 33.0659 62 28.9448C62 24.8236 64.5981 22.218 67.8704 22.218M69.0661 25.7631C67.5378 25.7631 66.1533 26.8975 66.1533 28.9891C66.1533 31.0807 67.5378 32.2594 69.0661 32.2594C70.5944 32.2594 71.9788 31.1072 71.9788 29.0157C71.9788 26.9241 70.6123 25.701 69.0661 25.701" fill="#D7282F"/>
<path d="M84.3602 22.2097C85.1646 22.167 85.9663 22.3326 86.6855 22.6903C87.4048 23.0479 88.0164 23.585 88.4596 24.2481V22.3958H92.5411V35.5037C92.5411 39.0044 90.4914 42 85.8795 42C81.924 42 79.3439 40.0147 78.9843 36.8862H83.0207C83.2815 37.8789 84.2883 38.517 85.7177 38.517C87.273 38.517 88.4866 37.7105 88.4866 35.5037V33.678C88.0406 34.3408 87.4295 34.8796 86.7117 35.2427C85.9939 35.6059 85.1935 35.7812 84.3872 35.7518C81.1149 35.7518 78.5078 33.093 78.5078 28.9719C78.5078 24.8508 81.1149 22.2452 84.3872 22.2452M85.5739 25.7902C84.0456 25.7902 82.6611 26.9246 82.6611 29.0162C82.6611 31.1078 84.0456 32.2865 85.5739 32.2865C87.1022 32.2865 88.4596 31.0192 88.4596 28.963C88.4596 26.9069 87.1022 25.7016 85.5469 25.7016" fill="#D7282F"/>
<path d="M95.4106 18.8676C95.3615 18.3849 95.4619 17.8989 95.6985 17.4736C95.9351 17.0482 96.2968 16.7035 96.736 16.4847C97.1752 16.2659 97.6713 16.1834 98.159 16.2479C98.6467 16.3125 99.1031 16.5211 99.4682 16.8464C99.8333 17.1717 100.09 17.5983 100.204 18.0701C100.319 18.5419 100.285 19.0368 100.109 19.4897C99.9325 19.9425 99.621 20.332 99.2156 20.607C98.8103 20.882 98.3299 21.0295 97.8378 21.0301C97.5324 21.0543 97.2252 21.0167 96.9351 20.9196C96.6449 20.8225 96.378 20.668 96.1507 20.4654C95.9233 20.2629 95.7404 20.0167 95.6131 19.7419C95.4859 19.4672 95.4169 19.1696 95.4106 18.8676ZM95.7881 22.4127H99.8696V35.5205H95.7881V22.4127Z" fill="#D7282F"/>
<path d="M107.191 18.1152H103.109V35.5303H107.191V18.1152Z" fill="#D7282F"/>
<path d="M116.366 35.7155C112.447 35.7155 109.633 33.1277 109.633 28.9622C109.633 24.7968 112.402 22.2089 116.366 22.2089C117.25 22.1601 118.135 22.2959 118.963 22.6074C119.79 22.9188 120.541 23.3989 121.167 24.0163C121.794 24.6336 122.281 25.3744 122.597 26.19C122.913 27.0056 123.05 27.8778 123.001 28.7495C122.998 29.1405 122.974 29.531 122.929 29.9194H113.687C113.676 30.2514 113.734 30.5821 113.857 30.8913C113.98 31.2005 114.166 31.4815 114.404 31.7173C114.641 31.953 114.925 32.1384 115.238 32.262C115.551 32.3857 115.886 32.445 116.222 32.4364C116.665 32.466 117.107 32.3602 117.486 32.1334C117.866 31.9065 118.166 31.5698 118.344 31.169H122.686C122.322 32.5216 121.499 33.7105 120.354 34.5377C119.209 35.3649 117.811 35.7806 116.393 35.7155M113.696 27.686H118.803C118.803 27.3708 118.736 27.0591 118.607 26.7707C118.478 26.4823 118.29 26.2236 118.054 26.011C117.818 25.7984 117.539 25.6365 117.237 25.5358C116.934 25.4351 116.613 25.3977 116.294 25.426C115.651 25.4074 115.025 25.6305 114.543 26.0502C114.06 26.4698 113.758 27.0546 113.696 27.686Z" fill="#D7282F"/>
</g>
<defs>
<clipPath id="clip0_177_4113">
<rect width="123" height="42" fill="white"/>
</clipPath>
</defs>
</svg>
