<svg width="36" height="35" viewBox="0 0 36 35" fill="none" xmlns="http://www.w3.org/2000/svg">
<rect x="0.796875" width="34.4" height="34.4" fill="white" fill-opacity="0.5"/>
<g clip-path="url(#clip0_208_8661)">
<path d="M26.5743 8.02629L23.567 11.452L19.8649 15.659L19.7458 15.7948L27.1897 26.3584H27.0309H21.8847C21.8343 26.362 21.7839 26.3511 21.7397 26.3269C21.6956 26.3027 21.6598 26.2665 21.6366 26.2225L16.8576 19.4293L16.7236 19.2449L15.349 20.8025C13.751 22.6172 12.153 24.4304 10.5551 26.2419C10.4928 26.3078 10.4081 26.3492 10.3169 26.3584C9.82064 26.3584 9.36408 26.3584 8.82812 26.3584L15.9892 18.2162L15.8899 18.0658L8.97206 8.22522C8.92243 8.15729 8.88272 8.0845 8.83806 8.01172H14.2969C14.3088 8.03913 14.3238 8.06516 14.3415 8.08934L18.9518 14.6546C18.9754 14.6906 18.997 14.7278 19.0163 14.7662L24.9714 8.01172L26.5743 8.02629ZM24.9466 25.2084L24.8126 25.0191L21.8351 20.8704C19.1024 17.0468 16.3696 13.2215 13.6369 9.39462C13.5986 9.33017 13.5423 9.27771 13.4747 9.24334C13.407 9.20897 13.3307 9.19413 13.2548 9.20055C12.5749 9.20055 11.9 9.20055 11.2201 9.20055H11.0266C11.0712 9.26848 11.096 9.31215 11.1308 9.35582C14.8792 14.5963 18.6243 19.8385 22.3661 25.0822C22.3935 25.124 22.432 25.1577 22.4774 25.1799C22.5228 25.2021 22.5735 25.2119 22.6241 25.2084H24.7828H24.9466Z" fill="black"/>
</g>
<defs>
<clipPath id="clip0_208_8661">
<rect width="18.3467" height="18.3467" fill="white" transform="translate(8.82812 8.02734)"/>
</clipPath>
</defs>
</svg>
